<svg xmlns="http://www.w3.org/2000/svg" xmlns:xlink="http://www.w3.org/1999/xlink" width="704px" height="472px" viewBox="0 0 704.46946964121 472.2161502363629">
    <g id="535fab2d-b228-4f54-b839-70f620e02261">
<g style="">
		<g id="path4215" clip-path="url(#CLIPPATH_14)">
<clipPath id="CLIPPATH_14">
	<path transform="matrix(3.944051 0 0 3.944051 352.234735 236.108075) matrix(1 0 0 1 -13.117108 -59.787285) matrix(1 0 0 1 42.1971 57.1455) translate(-470, -235)" id="path9" d="M 0.00 0.00 L 940.00 0.00 L 940.00 470.00 L 0.00 470.00 L 0.00 0.00 z" stroke-linecap="round"></path>
</clipPath>
<path style="stroke: none; stroke-width: 0.1; stroke-dasharray: none; stroke-linecap: butt; stroke-dashoffset: 0; stroke-linejoin: miter; stroke-miterlimit: 10; fill: rgb(255,255,255); fill-opacity: 1.00; fill-rule: evenodd; opacity: 1;" transform="matrix(3.944051 0 0 3.944051 352.234735 236.108075) matrix(1 0 0 1 -13.117108 -59.787285)  translate(-427.8029, -177.8545)" d="M 427.83 177.88 L 427.82 177.87 L 427.78 177.83 L 427.83 177.88 z" stroke-linecap="round"></path>
</g>
		<g id="sd-">
<path style="stroke: rgb(255,255,255); stroke-opacity: 1.00; stroke-width: 0.1; stroke-dasharray: none; stroke-linecap: butt; stroke-dashoffset: 0; stroke-linejoin: miter; stroke-miterlimit: 10; fill: rgb(219,219,219); fill-opacity: 1.00; fill-rule: nonzero; opacity: 1;" transform="matrix(3.944051 0 0 3.944051 352.234735 236.108075) matrix(1 0 0 1 21.004842 12.8971)  translate(-461.92485, -250.538885)" d="M 473.94 230.98 C 473.73 231.19 473.18 231.99 472.85 231.82 C 472.41 231.59 472.25 232.18 472.16 232.44 C 471.98 232.96 471.84 233.26 471.28 233.35 C 470.73 233.45 470.59 233.58 470.47 234.13 C 470.22 235.35 469.02 234.42 468.44 234.10 C 467.94 233.83 467.08 234.02 466.53 234.04 C 465.82 234.07 465.08 234.10 464.38 233.98 C 464.61 233.76 464.50 233.02 464.16 233.57 C 463.82 234.11 463.36 234.01 462.78 234.01 L 458.38 234.01 C 455.38 234.01 452.34 233.98 449.35 233.98 C 449.41 235.76 449.47 237.56 449.50 239.35 L 447.19 239.35 L 447.41 250.91 C 447.03 250.79 446.64 250.62 446.25 250.82 C 445.94 250.99 445.64 250.82 445.32 250.98 C 444.56 251.35 445.35 251.91 444.88 252.51 C 444.50 252.99 444.42 253.50 443.88 253.79 C 443.54 253.97 443.89 254.84 444.10 255.04 C 443.32 255.66 442.82 255.86 443.38 256.91 C 443.59 257.32 443.33 257.49 443.00 257.73 C 442.65 257.97 442.60 258.28 442.44 258.66 C 442.74 259.48 443.30 258.71 443.82 259.01 C 444.12 259.18 443.68 259.49 443.82 259.73 C 443.99 260.02 444.07 260.39 443.97 260.73 C 444.05 260.69 444.14 260.63 444.22 260.60 C 444.46 260.99 443.99 261.42 444.19 261.82 C 444.39 262.21 444.89 262.28 445.07 262.57 C 445.32 262.99 444.79 263.38 444.97 263.79 C 445.16 264.21 445.52 264.53 445.85 264.85 C 446.42 265.43 446.91 266.27 446.91 267.10 C 446.91 267.45 446.94 267.93 446.72 268.23 C 446.53 268.48 446.34 268.58 446.41 268.94 C 446.49 268.92 446.58 268.88 446.66 268.85 C 446.73 269.10 446.59 269.32 446.50 269.54 C 446.91 269.61 447.82 269.49 448.13 269.82 C 448.13 269.92 448.19 270.01 448.22 270.10 C 448.53 270.12 448.29 269.75 448.47 269.66 C 448.54 269.63 448.54 269.48 448.60 269.44 C 448.73 269.35 448.94 269.38 449.07 269.26 C 449.12 269.20 449.12 269.05 449.16 268.98 C 449.23 268.83 448.99 268.72 449.03 268.54 C 449.06 268.42 449.14 268.27 449.19 268.16 C 449.26 268.03 449.14 267.96 449.19 267.88 C 449.25 267.70 449.44 267.70 449.50 267.57 C 449.58 267.42 449.32 267.03 449.41 266.94 C 449.51 266.85 449.54 266.69 449.63 266.60 C 449.76 266.47 449.93 266.33 450.07 266.19 C 450.27 265.99 450.07 265.56 450.28 265.35 C 450.43 265.20 450.92 265.44 451.10 265.26 C 451.22 265.14 451.92 264.89 452.03 265.01 C 452.19 265.16 452.18 265.68 452.25 265.76 C 452.32 265.82 452.54 265.80 452.60 265.85 C 452.70 265.95 452.69 266.13 452.75 266.26 C 452.79 266.34 452.90 266.46 452.94 266.51 C 453.10 266.67 453.02 267.09 453.16 267.23 C 453.25 267.32 453.55 267.44 453.66 267.48 C 453.93 267.57 455.01 267.22 455.16 267.07 C 455.19 267.04 455.38 267.10 455.41 267.10 C 455.84 267.19 456.49 267.19 456.82 267.13 C 456.98 267.36 457.05 267.68 457.22 267.85 C 457.40 268.03 458.63 267.94 458.88 267.82 C 458.96 267.78 458.93 267.59 458.97 267.51 C 459.08 267.29 459.41 266.98 459.66 266.85 C 459.95 266.71 460.62 266.83 460.78 266.66 C 460.90 266.55 460.69 265.95 460.85 265.79 C 461.06 265.58 461.44 265.42 461.66 265.29 C 462.27 265.43 462.53 265.88 462.91 266.26 C 463.12 266.47 463.42 266.58 463.60 266.76 C 463.65 266.81 463.71 266.68 463.72 266.66 C 463.77 266.62 464.16 266.63 464.25 266.63 C 464.37 266.63 464.67 266.68 464.75 266.60 C 465.16 266.19 465.50 265.57 465.94 265.13 C 466.14 264.93 466.15 264.42 466.35 264.23 C 466.71 263.86 467.25 263.54 467.41 263.07 C 466.94 262.70 467.53 261.63 467.22 261.32 C 467.18 261.28 466.58 260.75 466.60 260.73 C 466.80 260.52 467.92 260.86 468.07 260.57 C 468.16 260.38 468.04 260.12 468.07 259.98 C 468.19 259.91 469.32 259.97 469.32 259.98 C 469.32 260.21 469.09 261.05 468.97 261.29 C 468.85 261.53 469.24 262.97 469.32 263.26 C 469.35 263.40 469.23 263.92 469.28 263.98 C 469.39 264.09 469.68 264.12 469.82 264.23 C 470.37 264.65 470.66 265.44 471.07 265.85 C 471.20 265.98 471.07 266.73 470.85 266.54 C 470.89 267.86 470.77 266.99 471.57 267.26 C 471.59 267.06 471.63 266.86 471.69 266.66 C 471.84 266.21 472.05 265.90 472.03 265.41 C 472.01 264.87 471.96 264.48 472.32 264.04 C 472.58 263.70 473.01 263.97 473.00 264.35 C 473.19 264.14 473.29 264.00 473.44 263.70 C 473.81 262.93 473.27 262.93 473.44 262.73 C 473.87 262.22 473.54 261.34 474.00 261.04 C 474.45 260.75 474.63 259.77 474.91 259.32 C 475.20 258.86 475.56 259.07 476.00 259.01 C 476.30 258.97 476.25 258.09 476.25 257.88 C 476.27 257.30 476.60 256.88 476.72 256.32 C 476.89 255.51 476.78 254.60 476.75 254.04 C 476.72 253.43 476.53 252.70 476.75 252.29 C 477.06 251.71 477.15 250.94 477.41 250.23 C 477.51 249.95 477.66 249.64 477.72 249.35 C 477.79 249.04 477.63 248.82 477.69 248.51 C 477.75 248.19 477.68 247.52 477.97 247.35 C 478.18 247.23 478.77 247.48 478.85 247.20 C 479.00 246.64 478.93 246.58 479.53 246.35 C 479.87 246.22 480.63 245.93 480.82 245.63 C 480.96 245.40 481.33 244.79 481.41 244.70 C 481.36 244.28 480.65 244.33 480.63 243.95 C 480.34 244.21 479.53 242.86 479.10 242.79 C 478.34 242.66 478.10 241.20 478.07 240.57 C 478.02 239.67 477.76 238.86 477.88 237.98 C 477.93 237.58 477.78 237.14 477.63 236.79 C 477.41 236.30 477.86 236.05 477.97 236.54 C 477.94 235.90 477.21 235.51 477.03 234.91 C 476.82 234.20 477.13 233.94 476.47 233.48 C 475.98 233.13 475.65 232.47 475.13 232.20 C 474.55 231.89 474.10 231.66 473.94 230.98 z" stroke-linecap="round"></path>
</g>
		<g id="ly">
<path style="stroke: rgb(255,255,255); stroke-opacity: 1.00; stroke-width: 0.1; stroke-dasharray: none; stroke-linecap: butt; stroke-dashoffset: 0; stroke-linejoin: miter; stroke-miterlimit: 10; fill: rgb(219,219,219); fill-opacity: 1.00; fill-rule: nonzero; opacity: 1;" transform="matrix(3.944051 0 0 3.944051 352.234735 236.108075) matrix(1 0 0 1 -9.548068 -15.28775)  translate(-431.37194, -222.354035)" d="M 413.26 212.43 C 412.96 212.17 413.60 211.87 413.77 211.80 C 414.27 211.56 414.53 211.43 414.84 210.94 C 415.08 210.55 415.32 210.36 415.23 209.85 C 415.14 209.42 414.94 208.98 414.98 208.52 C 415.04 207.90 415.80 208.06 415.92 207.61 C 416.05 207.13 416.45 206.88 416.85 206.69 C 417.16 206.54 418.16 206.27 418.17 205.84 C 418.17 205.63 417.96 205.49 417.99 205.27 C 418.03 204.85 418.04 204.43 418.08 204.02 C 418.48 204.29 419.02 204.44 419.45 204.70 C 419.91 204.98 420.42 205.07 420.94 205.02 C 421.48 204.96 421.87 204.62 422.42 204.82 C 422.90 204.99 423.42 205.01 423.89 205.21 C 424.32 205.39 424.66 205.72 425.08 205.89 C 425.45 206.03 425.96 205.88 426.29 206.11 C 426.68 206.38 426.76 206.85 426.83 207.28 C 426.93 207.84 427.15 208.28 427.58 208.65 C 428.36 209.33 429.33 209.17 430.27 209.34 C 431.22 209.51 432.56 209.94 433.32 210.55 C 433.92 211.05 434.48 211.87 435.35 211.80 C 436.35 211.71 437.42 210.82 437.64 209.82 C 437.74 209.36 437.43 209.00 437.29 208.58 C 437.13 208.12 437.02 207.59 437.18 207.11 C 437.46 206.24 438.90 205.15 439.82 205.12 C 440.29 205.11 440.57 204.76 441.00 204.73 C 441.45 204.70 441.92 204.69 442.36 204.80 C 442.87 204.92 443.31 205.17 443.80 205.36 C 444.37 205.58 444.22 205.66 444.24 206.16 C 444.27 206.56 444.92 206.65 445.21 206.67 C 445.78 206.71 446.15 206.97 446.67 207.12 C 447.19 207.27 447.74 207.10 448.27 207.20 C 448.57 207.25 449.02 207.85 448.91 208.16 C 448.80 208.49 448.40 208.58 448.34 208.95 C 448.26 209.46 448.59 209.85 448.68 210.33 C 448.78 210.86 448.44 211.34 448.25 211.81 C 448.06 212.31 448.57 212.90 448.65 213.41 C 448.80 214.29 448.95 215.11 449.01 216.01 L 449.56 239.35 C 448.79 239.35 448.01 239.35 447.24 239.35 C 447.26 239.80 447.25 240.25 447.28 240.69 L 428.79 230.22 L 424.60 232.23 C 424.24 232.33 423.80 231.75 423.60 231.55 C 422.73 230.68 421.79 230.51 420.64 230.24 C 420.23 230.15 419.69 230.10 419.32 229.88 C 419.03 229.70 418.89 229.19 418.77 228.89 C 418.42 228.03 417.99 227.79 417.14 227.47 C 416.86 227.37 416.59 227.13 416.29 227.14 C 415.98 227.14 415.66 227.48 415.38 227.17 C 415.15 226.92 414.75 226.29 414.74 225.94 C 414.73 225.23 414.66 224.96 414.27 224.35 C 413.96 223.88 412.95 223.04 413.39 222.42 C 413.89 221.69 414.66 221.97 414.33 220.78 C 414.16 220.19 414.05 219.73 414.25 219.13 C 414.42 218.61 414.53 218.19 414.34 217.65 C 414.14 217.09 414.29 216.53 414.34 215.96 C 414.40 215.29 414.30 214.60 414.08 213.97 C 413.88 213.42 413.60 212.90 413.26 212.43" stroke-linecap="round"></path>
</g>
		<g id="path2190">
<path style="stroke: rgb(255,255,255); stroke-opacity: 1.00; stroke-width: 0.322538; stroke-dasharray: none; stroke-linecap: butt; stroke-dashoffset: 0; stroke-linejoin: miter; stroke-miterlimit: 10; fill: rgb(219,219,219); fill-opacity: 1.00; fill-rule: nonzero; opacity: 1;" transform="matrix(3.944051 0 0 3.944051 352.234735 236.108075) matrix(0.310041 0 0 0.310041 50.663105 17.895389)  translate(-1624.932349, -683.784)" d="M 1625.19 684.29 C 1625.28 683.96 1625.31 683.62 1625.26 683.28 C 1624.15 683.46 1624.60 683.90 1625.19 684.29" stroke-linecap="round"></path>
</g>
		<g id="path2192">
<path style="stroke: rgb(255,255,255); stroke-opacity: 1.00; stroke-width: 0.322538; stroke-dasharray: none; stroke-linecap: butt; stroke-dashoffset: 0; stroke-linejoin: miter; stroke-miterlimit: 10; fill: none; fill-rule: nonzero; opacity: 1;" transform="matrix(3.944051 0 0 3.944051 352.234735 236.108075) matrix(0.310041 0 0 0.310041 73.177054 22.700762)  translate(-1697.5485, -699.283178)" d="M 1698.27 699.55 C 1698.23 698.77 1697.27 699.05 1696.83 699.12 C 1697.31 699.26 1697.79 699.41 1698.27 699.55" stroke-linecap="round"></path>
</g>
		<g id="path2194">
<path style="stroke: rgb(255,255,255); stroke-opacity: 1.00; stroke-width: 0.322538; stroke-dasharray: none; stroke-linecap: butt; stroke-dashoffset: 0; stroke-linejoin: miter; stroke-miterlimit: 10; fill: rgb(219,219,219); fill-opacity: 1.00; fill-rule: nonzero; opacity: 1;" transform="matrix(3.944051 0 0 3.944051 352.234735 236.108075) matrix(0.310041 0 0 0.310041 77.107186 21.806903)  translate(-1710.224683, -696.400139)" d="M 1708.92 698.11 C 1710.60 697.73 1713.53 697.91 1714.39 696.02 C 1713.38 695.42 1712.04 694.49 1710.79 694.77 C 1710.20 694.90 1709.69 695.29 1709.06 695.23 C 1708.39 695.17 1707.81 694.58 1707.12 694.71 C 1706.36 694.84 1705.68 696.32 1706.31 696.88 C 1706.96 697.46 1708.05 697.99 1708.92 698.11" stroke-linecap="round"></path>
</g>
		<g id="path2592">
<path style="stroke: rgb(255,255,255); stroke-opacity: 1.00; stroke-width: 0.322538; stroke-dasharray: none; stroke-linecap: butt; stroke-dashoffset: 0; stroke-linejoin: miter; stroke-miterlimit: 10; fill: rgb(219,219,219); fill-opacity: 1.00; fill-rule: nonzero; opacity: 1;" transform="matrix(3.944051 0 0 3.944051 352.234735 236.108075) matrix(0.310041 0 0 0.310041 62.479319 12.816246)  translate(-1663.044125, -667.40177)" d="M 1702.66 660.28 C 1700.23 660.19 1701.60 655.22 1699.20 654.94 C 1700.28 653.22 1696.28 647.90 1695.59 646.03 L 1692.78 639.54 C 1685.65 640.94 1678.50 642.47 1671.48 643.42 C 1665.63 645.22 1662.68 648.13 1661.36 651.30 C 1660.14 653.12 1659.48 657.73 1656.56 657.55 C 1654.57 657.43 1654.78 654.44 1652.87 654.67 C 1650.45 654.95 1648.48 654.91 1646.03 654.56 C 1644.64 654.37 1643.21 653.38 1641.85 653.38 C 1640.35 653.38 1638.85 653.53 1637.35 653.67 C 1635.51 653.84 1633.96 654.67 1632.05 654.56 C 1631.00 654.50 1630.61 653.34 1629.54 653.21 C 1628.52 653.08 1627.73 653.77 1627.30 654.63 C 1626.83 655.58 1626.68 656.73 1626.86 657.76 C 1626.97 658.44 1627.91 659.10 1627.40 659.79 C 1626.92 660.45 1626.53 661.12 1626.04 661.80 C 1625.77 662.17 1625.44 662.46 1625.03 662.68 C 1624.07 663.16 1624.56 663.52 1624.76 664.57 C 1625.07 666.24 1624.44 667.02 1624.15 668.54 C 1623.87 669.94 1625.05 671.17 1624.92 672.56 C 1624.65 672.32 1623.22 672.29 1623.46 672.85 C 1623.41 672.73 1624.90 673.57 1624.90 673.57 C 1625.70 674.42 1626.00 675.31 1626.28 676.43 C 1626.81 678.63 1626.86 681.07 1627.55 683.21 C 1627.83 684.09 1628.53 684.74 1628.87 685.60 C 1629.27 686.63 1628.89 687.75 1628.87 688.80 C 1628.83 690.89 1631.35 692.64 1630.67 694.76 C 1631.59 694.84 1632.21 694.32 1633.14 694.69 C 1634.13 695.09 1634.81 695.41 1635.91 695.20 C 1638.16 694.75 1639.17 693.17 1641.52 694.41 C 1641.40 693.77 1642.08 693.12 1642.31 694.05 C 1642.70 693.62 1642.92 693.12 1643.24 692.65 C 1643.73 691.89 1644.54 691.91 1645.20 691.41 C 1646.68 690.29 1646.85 689.16 1648.89 688.70 C 1650.79 688.26 1652.80 688.18 1654.74 688.35 C 1655.88 688.46 1657.80 687.15 1658.94 686.82 C 1660.65 686.34 1661.50 684.86 1663.00 684.03 C 1663.46 683.78 1664.11 683.20 1664.61 683.05 C 1665.16 683.07 1665.68 683.20 1666.18 683.44 C 1666.75 683.47 1667.30 683.40 1667.84 683.24 C 1671.47 682.66 1672.28 678.90 1675.54 677.30 C 1677.06 676.56 1678.40 676.37 1680.01 676.09 C 1682.01 675.74 1683.66 674.40 1685.63 673.93 C 1686.99 673.61 1688.37 673.35 1689.70 672.87 C 1691.02 672.39 1691.49 671.34 1692.61 670.77 C 1693.54 670.29 1695.54 670.35 1695.82 669.09 C 1696.16 667.63 1695.14 666.30 1695.67 664.82 C 1696.74 661.81 1700.41 661.93 1702.66 660.28" stroke-linecap="round"></path>
</g>
		<g id="dz">
<path style="stroke: rgb(255,255,255); stroke-opacity: 1.00; stroke-width: 0.1; stroke-dasharray: none; stroke-linecap: butt; stroke-dashoffset: 0; stroke-linejoin: miter; stroke-miterlimit: 10; fill: rgb(219,219,219); fill-opacity: 1.00; fill-rule: nonzero; opacity: 1;" transform="matrix(3.944051 0 0 3.944051 352.234735 236.108075) matrix(1 0 0 1 -45.393208 -19.863815)  translate(-395.5268, -217.77797)" d="M 371.85 219.80 L 372.01 216.43 C 371.87 215.52 373.26 215.22 373.76 214.77 C 374.00 214.54 374.41 214.08 374.79 214.10 C 375.12 214.12 375.20 213.62 375.64 213.54 C 376.35 213.40 376.71 214.09 377.14 213.15 C 377.27 212.86 377.72 212.98 377.97 212.94 C 378.43 212.88 378.89 212.82 379.32 212.66 C 380.19 212.34 380.23 211.41 380.97 211.02 C 381.27 210.85 381.67 210.84 382.00 210.72 C 382.39 210.57 382.65 210.13 383.06 210.04 C 383.21 210.01 384.02 209.95 383.69 209.52 C 383.47 209.25 383.14 209.15 383.57 208.75 C 382.95 208.58 383.51 207.92 383.97 207.96 C 384.58 208.01 385.14 207.79 385.35 207.23 C 385.77 206.14 388.58 207.10 389.38 206.90 C 388.46 206.48 390.05 205.97 389.55 205.59 C 389.31 205.41 389.05 205.25 388.86 205.02 C 388.63 204.75 388.75 204.36 388.53 204.03 C 388.30 203.69 388.43 203.40 388.50 203.06 C 388.56 202.74 388.31 202.74 388.35 202.43 C 388.38 202.13 388.37 201.78 388.38 201.49 C 388.38 201.10 388.12 200.79 388.51 200.49 C 388.11 200.33 388.27 200.10 388.21 199.80 C 388.13 199.40 387.44 199.27 387.29 198.86 C 388.03 198.86 388.35 198.68 388.98 198.36 C 389.26 198.22 389.43 198.22 389.60 197.93 C 389.74 197.67 389.85 197.46 390.13 197.31 C 390.28 197.23 390.58 196.99 390.74 197.12 C 390.95 197.28 391.22 196.99 391.36 196.87 C 391.72 196.53 392.22 197.37 392.59 196.61 C 393.09 195.58 394.81 195.14 395.82 195.02 C 396.53 194.94 397.26 194.74 397.98 194.79 C 398.52 194.83 398.89 194.14 399.36 194.40 C 399.56 194.52 399.52 194.45 399.59 194.33 C 399.61 194.30 400.42 194.31 400.54 194.26 C 401.24 193.99 401.94 194.09 402.68 194.07 C 403.29 194.05 403.43 194.18 403.90 194.53 C 404.49 194.98 404.70 194.32 405.22 194.25 C 405.38 194.23 406.41 194.19 406.35 193.88 C 406.25 193.33 407.00 193.67 407.18 193.79 C 407.55 194.04 408.11 194.17 408.49 193.86 C 408.70 193.69 408.57 193.48 408.97 193.58 C 409.25 193.65 409.47 193.85 409.78 193.84 C 409.52 194.27 410.17 194.12 410.37 194.07 C 410.78 193.96 411.22 194.06 411.61 193.93 C 411.64 194.48 410.94 194.76 410.63 195.11 C 411.47 195.29 410.66 196.47 410.83 197.01 C 411.13 197.94 411.00 198.65 410.81 199.58 C 410.64 200.34 409.80 200.93 409.23 201.43 C 408.90 201.72 409.06 202.48 409.26 202.80 C 409.57 203.32 409.43 203.89 410.07 204.13 C 410.94 204.46 410.69 205.57 411.39 206.10 C 411.72 206.35 412.11 206.52 412.38 206.83 C 412.76 207.25 412.81 207.93 412.90 208.46 C 413.08 209.55 413.60 210.76 413.60 211.86 C 413.60 212.16 412.97 212.05 413.38 212.58 C 413.76 213.10 414.09 213.72 414.22 214.36 C 414.66 216.56 414.01 216.55 414.34 217.68 C 414.50 218.22 414.51 218.61 414.30 219.14 C 414.06 219.73 414.28 220.28 414.41 220.87 C 414.60 221.77 414.20 221.78 413.57 222.26 C 412.84 222.81 414.05 223.87 414.36 224.36 C 414.95 225.26 414.59 226.33 415.38 227.17 C 415.68 227.50 416.02 227.11 416.34 227.13 C 416.75 227.16 417.18 227.47 417.56 227.61 C 418.43 227.92 418.72 228.65 419.04 229.47 C 419.20 229.87 419.35 229.91 418.93 230.15 C 414.53 232.96 410.09 235.77 406.34 239.42 C 406.12 239.73 405.42 240.52 404.88 240.82 C 404.47 241.04 403.86 241.06 403.41 241.16 C 402.80 241.29 402.18 241.41 401.56 241.54 C 401.25 241.60 398.55 242.53 398.66 241.57 C 398.70 241.24 398.95 241.11 398.91 240.73 C 398.90 240.59 398.94 239.83 398.79 239.76 C 398.34 239.53 397.77 239.43 397.27 239.33 C 397.02 239.28 396.69 238.65 396.50 238.70 C 395.42 238.97 395.24 237.89 395.05 237.73 C 394.82 237.53 394.42 237.52 394.21 237.36 C 393.97 237.18 394.18 236.73 394.04 236.49 C 393.86 236.18 393.55 235.92 393.25 235.75 C 392.75 235.45 392.29 235.10 391.83 234.74 C 390.69 233.86 389.57 232.95 388.44 232.06 C 384.07 228.63 379.71 225.20 375.14 222.04 C 374.05 221.28 372.95 220.54 371.85 219.80" stroke-linecap="round"></path>
</g>
		<g id="jo">
<path style="stroke: rgb(255,255,255); stroke-opacity: 1.00; stroke-width: 0.1; stroke-dasharray: none; stroke-linecap: butt; stroke-dashoffset: 0; stroke-linejoin: miter; stroke-miterlimit: 10; fill: rgb(219,219,219); fill-opacity: 1.00; fill-rule: nonzero; opacity: 1;" transform="matrix(3.944051 0 0 3.944051 352.234735 236.108075) matrix(1 0 0 1 35.218832 -28.55107)  translate(-476.13884, -209.090715)" d="M 471.55 214.24 C 471.50 213.49 471.81 212.78 471.81 212.03 C 471.82 211.18 472.20 210.54 472.31 209.73 C 472.35 209.39 472.25 209.05 472.28 208.70 C 472.30 208.38 472.41 208.06 472.42 207.74 C 472.45 207.07 472.36 206.27 472.33 205.60 C 472.31 205.03 473.02 205.21 473.35 205.43 C 473.88 205.80 474.37 206.36 475.09 206.22 C 475.81 206.08 476.48 205.40 477.07 205.00 C 477.84 204.49 478.60 203.93 479.41 203.48 C 479.65 204.27 479.98 205.04 480.25 205.82 C 479.98 205.85 480.16 206.23 480.34 206.28 C 480.62 206.35 480.97 206.30 480.52 206.78 C 479.09 207.65 477.66 208.12 475.94 208.55 L 478.50 211.23 C 478.27 211.35 477.66 211.33 477.50 211.54 C 477.31 211.78 477.52 212.26 477.32 212.49 C 476.98 212.89 476.13 212.55 475.69 212.97 C 475.19 213.45 475.03 214.35 474.31 214.63 C 473.66 214.88 472.20 214.41 471.55 214.24" stroke-linecap="round"></path>
</g>
		<g id="so-">
<path style="stroke: rgb(255,255,255); stroke-opacity: 1.00; stroke-width: 0.1; stroke-dasharray: none; stroke-linecap: butt; stroke-dashoffset: 0; stroke-linejoin: miter; stroke-miterlimit: 10; fill: rgb(219,219,219); fill-opacity: 1.00; fill-rule: nonzero; opacity: 1;" transform="matrix(3.944051 0 0 3.944051 352.234735 236.108075) matrix(0.310041 0 0 0.310041 59.242197 41.554467)  translate(-1622.701462, -715.019049)" d="M 1583.70 739.51 C 1583.70 738.10 1583.33 736.16 1583.94 734.84 C 1584.52 733.59 1585.70 732.62 1586.49 731.49 C 1588.08 729.23 1589.46 725.19 1591.86 723.73 C 1594.06 722.41 1596.63 723.27 1598.55 721.20 C 1600.74 718.86 1602.81 717.32 1606.11 716.85 C 1608.58 716.49 1612.93 718.25 1614.64 715.98 L 1636.33 690.33 C 1633.70 690.33 1630.98 690.78 1628.41 690.12 C 1625.48 689.37 1622.69 687.96 1619.87 686.91 C 1616.96 685.82 1614.06 684.70 1611.16 683.60 C 1608.47 682.58 1606.11 681.87 1604.04 679.80 C 1603.35 679.11 1603.13 678.74 1602.17 678.49 C 1601.20 678.23 1600.82 676.72 1600.37 675.92 C 1599.59 674.57 1599.08 673.47 1597.99 672.27 C 1596.68 670.85 1595.15 669.02 1595.74 666.89 C 1596.39 664.56 1598.43 662.52 1599.34 660.22 C 1601.75 661.56 1603.07 664.76 1604.71 666.84 C 1606.76 669.42 1609.89 670.14 1613.06 669.10 C 1614.28 668.70 1615.85 667.61 1616.89 666.85 C 1618.72 665.49 1619.24 665.72 1621.50 666.09 C 1623.83 666.47 1624.88 666.96 1627.05 665.60 C 1628.15 664.92 1630.68 662.36 1632.09 662.86 C 1633.65 663.42 1634.73 663.49 1636.40 662.91 C 1637.42 662.56 1638.37 662.05 1639.42 661.82 C 1640.63 661.55 1641.43 662.07 1642.58 662.19 C 1644.45 662.37 1645.89 661.26 1647.52 660.60 C 1649.21 659.91 1651.13 660.22 1652.84 659.35 C 1654.26 658.63 1654.41 656.77 1655.61 656.18 C 1656.79 655.60 1660.57 656.60 1660.10 658.29 C 1659.50 660.48 1659.09 661.82 1659.50 664.14 C 1659.78 665.75 1660.20 668.07 1658.78 669.31 C 1659.72 669.67 1660.50 669.45 1660.29 668.45 C 1660.76 668.76 1661.27 668.98 1661.81 669.10 C 1661.50 670.65 1657.99 668.52 1657.97 671.25 C 1657.96 673.47 1658.15 675.75 1657.53 677.93 C 1657.00 679.79 1655.88 681.21 1654.83 682.78 C 1653.60 684.60 1653.75 687.30 1652.24 689.06 C 1651.66 689.74 1650.86 689.91 1650.45 690.81 C 1650.05 691.71 1650.40 692.72 1650.06 693.67 C 1649.30 695.83 1647.75 697.54 1646.68 699.53 C 1645.24 702.18 1645.13 705.09 1644.01 707.83 C 1642.87 710.62 1641.10 713.07 1639.47 715.58 C 1637.89 718.01 1636.84 720.83 1635.02 723.10 C 1633.01 725.62 1631.00 728.13 1628.94 730.62 C 1624.82 735.62 1620.63 739.69 1615.17 743.21 C 1612.88 744.68 1610.60 746.21 1608.69 748.17 C 1606.53 750.37 1604.07 752.54 1602.13 754.92 C 1600.20 757.27 1598.17 759.57 1596.27 761.93 C 1595.34 763.08 1594.53 764.32 1593.63 765.49 C 1593.07 766.21 1591.40 768.82 1591.11 767.30 C 1591.11 769.78 1589.49 772.16 1588.00 774.03 C 1588.12 772.08 1586.25 770.48 1584.92 768.56 C 1583.39 766.37 1583.64 764.86 1583.61 762.33 C 1583.55 754.66 1583.70 747.17 1583.70 739.51" stroke-linecap="round"></path>
</g>
		<g id="xs">
<path style="stroke: rgb(255,255,255); stroke-opacity: 1.00; stroke-width: 0.1; stroke-dasharray: none; stroke-linecap: butt; stroke-dashoffset: 0; stroke-linejoin: miter; stroke-miterlimit: 10; fill: rgb(219,219,219); fill-opacity: 1.00; fill-rule: nonzero; opacity: 1;" transform="matrix(3.944051 0 0 3.944051 352.234735 236.108075) matrix(0.310041 0 0 0.310041 57.796614 29.255886)  translate(-1618.038925, -675.351459)" d="M 1636.33 690.33 C 1633.70 690.33 1630.98 690.78 1628.41 690.12 C 1625.48 689.37 1622.69 687.96 1619.87 686.91 C 1616.96 685.82 1614.06 684.70 1611.16 683.60 C 1608.47 682.58 1606.11 681.87 1604.04 679.80 C 1603.35 679.11 1603.13 678.74 1602.17 678.49 C 1601.20 678.23 1600.82 676.72 1600.37 675.92 C 1599.59 674.57 1599.08 673.47 1597.99 672.27 C 1596.68 670.85 1595.15 669.02 1595.74 666.89 C 1596.39 664.56 1598.43 662.52 1599.34 660.22 C 1601.75 661.56 1603.07 664.76 1604.71 666.84 C 1606.76 669.42 1609.89 670.14 1613.06 669.10 C 1614.28 668.70 1615.85 667.61 1616.89 666.85 C 1618.72 665.49 1619.24 665.72 1621.50 666.09 C 1623.83 666.47 1624.88 666.96 1627.05 665.60 C 1628.15 664.92 1630.68 662.36 1632.09 662.86 C 1633.65 663.42 1634.73 663.49 1636.40 662.91 C 1637.42 662.56 1638.37 662.05 1639.42 661.82 C 1639.77 661.74 1640.09 661.73 1640.39 661.75 L 1640.47 685.32 L 1636.33 690.33 z" stroke-linecap="round"></path>
</g>
		<g id="path3878">
<path style="stroke: rgb(255,255,255); stroke-opacity: 1.00; stroke-width: 0.1; stroke-dasharray: none; stroke-linecap: butt; stroke-dashoffset: 0; stroke-linejoin: miter; stroke-miterlimit: 10; fill: rgb(255,255,255); fill-opacity: 1.00; fill-rule: nonzero; opacity: 1;" transform="matrix(3.944051 0 0 3.944051 352.234735 236.108075) matrix(0.310041 0 0 0.310041 -87.741978 2.436769)  translate(-1178.522691, -633.924)" d="M 1178.28 635.04 C 1178.79 634.40 1178.89 633.59 1178.93 632.81 C 1178.35 633.36 1177.85 634.23 1178.28 635.04" stroke-linecap="round"></path>
</g>
		<g id="path3882">
<path style="stroke: rgb(255,255,255); stroke-opacity: 1.00; stroke-width: 0.1; stroke-dasharray: none; stroke-linecap: butt; stroke-dashoffset: 0; stroke-linejoin: miter; stroke-miterlimit: 10; fill: rgb(219,219,219); fill-opacity: 1.00; fill-rule: nonzero; opacity: 1;" transform="matrix(3.944051 0 0 3.944051 352.234735 236.108075) matrix(0.310041 0 0 0.310041 -74.777219 -1.036958)  translate(-1220.338957, -622.719813)" d="M 1174.04 624.96 C 1173.83 623.58 1173.95 622.63 1174.50 621.31 C 1174.66 620.94 1175.17 620.04 1176.14 619.99 L 1204.02 619.96 C 1205.44 619.21 1204.46 613.05 1204.37 610.68 C 1204.20 608.29 1203.95 606.74 1205.87 604.93 C 1207.47 603.42 1207.41 603.80 1212.50 601.73 L 1213.62 579.89 L 1238.49 579.60 L 1238.83 568.53 C 1248.30 574.90 1257.60 581.47 1266.73 588.31 C 1262.34 588.31 1257.91 588.31 1253.52 588.31 L 1258.94 661.22 C 1259.39 662.42 1260.62 662.93 1260.72 663.21 C 1261.45 665.06 1260.50 665.62 1260.43 667.05 C 1260.35 668.73 1260.18 670.24 1259.69 670.42 L 1243.81 670.43 C 1234.78 670.75 1230.92 671.98 1230.12 669.31 C 1229.73 671.73 1226.15 672.12 1224.39 671.42 C 1221.60 670.32 1219.82 670.78 1218.68 673.92 C 1218.03 672.85 1217.09 671.94 1216.12 671.00 C 1214.97 669.90 1213.87 669.31 1213.26 669.64 C 1210.97 670.91 1214.16 677.29 1208.54 676.89 C 1208.57 676.99 1207.03 675.80 1206.62 675.02 C 1206.11 674.05 1205.53 674.36 1204.56 673.53 C 1203.50 672.63 1203.58 671.17 1202.72 670.59 C 1200.41 669.06 1201.32 669.04 1201.11 668.00 C 1200.84 666.72 1199.54 665.09 1198.89 665.08 C 1195.49 665.03 1195.25 662.27 1193.05 661.21 C 1191.93 660.68 1190.97 660.39 1189.47 660.34 C 1187.14 660.27 1186.33 662.55 1180.98 662.15 C 1179.85 662.06 1180.00 661.31 1179.04 661.58 C 1178.11 661.92 1177.01 664.93 1176.64 665.71 C 1176.64 660.51 1180.06 656.27 1180.56 651.17 C 1180.85 648.10 1180.43 645.50 1180.04 642.50 C 1179.90 641.41 1179.94 640.23 1179.25 639.31 C 1178.65 638.50 1177.60 637.93 1177.49 636.84 C 1178.29 637.09 1179.18 636.50 1179.08 635.62 C 1178.54 635.76 1178.11 636.17 1177.92 636.70 C 1178.12 635.65 1178.96 634.92 1179.42 634.00 C 1179.71 633.41 1179.28 632.46 1179.63 632.07 C 1181.20 630.27 1178.80 627.10 1178.21 625.32 C 1177.97 625.75 1177.80 626.21 1177.71 626.69 C 1176.12 625.49 1176.50 623.00 1174.90 621.79 C 1174.64 622.86 1174.26 623.89 1174.04 624.96" stroke-linecap="round"></path>
</g>
		<g id="iq">
<path style="stroke: rgb(255,255,255); stroke-opacity: 1.00; stroke-width: 0.1; stroke-dasharray: none; stroke-linecap: butt; stroke-dashoffset: 0; stroke-linejoin: miter; stroke-miterlimit: 10; fill: rgb(219,219,219); fill-opacity: 1.00; fill-rule: nonzero; opacity: 1;" transform="matrix(3.944051 0 0 3.944051 352.234735 236.108075) matrix(1 0 0 1 49.960492 -33.730046)  translate(-490.8805, -203.911739)" d="M 479.41 203.48 C 480.76 202.82 481.95 202.17 483.15 201.34 C 483.53 201.08 483.95 200.75 484.17 200.42 C 484.59 199.78 484.25 198.92 484.34 198.68 C 484.34 197.68 484.61 197.56 484.56 197.07 C 484.49 196.54 483.73 195.59 484.32 195.13 C 484.66 194.87 485.08 194.88 485.42 194.59 C 485.72 194.34 486.51 193.70 486.27 193.44 C 486.17 193.33 486.38 193.46 486.54 193.41 C 486.80 193.33 486.89 193.08 487.01 192.87 C 487.12 192.66 488.30 192.85 488.56 192.95 C 488.76 193.03 488.97 193.10 489.18 193.15 C 489.54 193.22 489.64 192.99 489.95 192.93 C 490.73 192.79 490.20 193.81 490.64 193.77 C 490.96 193.74 491.09 193.25 491.44 193.27 C 491.89 193.28 491.87 194.05 492.07 194.31 C 492.16 194.43 492.29 194.41 492.36 194.57 C 492.46 194.76 492.33 195.03 492.49 195.19 C 492.83 195.52 493.58 195.85 493.28 196.43 C 493.78 196.31 493.99 196.77 494.21 196.85 C 494.64 197.01 494.65 196.67 495.58 196.92 C 495.50 197.27 495.09 197.19 494.95 197.45 C 494.70 197.91 495.40 198.25 495.44 198.66 C 495.49 199.21 494.82 198.61 494.84 199.16 C 494.85 199.41 494.58 199.37 494.51 199.60 C 494.43 199.87 494.56 200.07 494.61 200.31 C 494.44 200.31 494.28 200.27 494.14 200.18 C 494.10 200.40 493.95 200.57 494.12 200.76 C 494.32 200.96 494.46 201.05 494.35 201.38 C 494.25 201.69 493.97 201.77 494.24 202.01 C 494.48 202.22 494.68 202.48 494.94 202.65 C 495.20 202.83 496.57 204.00 495.79 204.22 C 496.10 204.29 496.02 204.64 496.27 204.59 C 496.63 204.50 496.83 204.73 497.12 204.89 C 497.65 205.19 497.99 205.87 498.72 205.93 C 499.07 205.96 499.71 207.09 500.01 207.36 C 500.48 207.77 500.19 208.19 500.07 208.76 C 500.02 209.02 500.03 209.79 500.43 209.82 C 500.57 209.83 500.81 209.80 500.92 209.94 C 501.06 210.12 501.06 210.48 501.03 210.70 C 500.95 211.19 501.21 211.33 501.75 211.72 C 502.03 211.92 501.97 212.53 502.35 212.63 C 502.15 212.64 500.95 212.47 500.93 212.25 C 501.09 212.64 500.41 212.33 500.14 212.32 C 499.75 212.30 499.25 212.39 499.07 212.77 C 498.69 213.58 498.76 215.19 497.47 215.04 L 494.21 214.67 C 493.12 214.51 493.08 213.94 492.08 213.31 C 489.32 211.28 486.67 208.84 483.58 207.49 C 482.47 207.00 481.48 207.05 480.48 206.82 C 481.11 206.14 480.35 206.44 480.16 206.15 C 480.11 206.08 480.08 205.94 480.12 205.86 C 480.27 205.68 480.12 205.50 480.02 205.23 C 479.80 204.65 479.59 204.08 479.41 203.48" stroke-linecap="round"></path>
</g>
		<g id="eh">
<path style="stroke: rgb(255,255,255); stroke-opacity: 1.00; stroke-width: 0.1; stroke-dasharray: none; stroke-linecap: butt; stroke-dashoffset: 0; stroke-linejoin: miter; stroke-miterlimit: 10; fill: rgb(219,219,219); fill-opacity: 1.00; fill-rule: nonzero; opacity: 1;" transform="matrix(3.944051 0 0 3.944051 352.234735 236.108075) matrix(1 0 0 1 -79.129123 -9.63693)  translate(-361.790885, -228.004855)" d="M 351.79 237.30 C 351.42 236.65 351.96 235.56 352.08 234.88 C 352.15 234.43 352.27 234.00 352.52 233.60 C 352.81 233.11 353.36 233.11 353.54 232.50 C 353.63 232.19 353.63 231.72 353.94 231.53 C 354.11 231.43 354.01 231.07 354.15 230.87 C 354.36 230.55 355.24 229.46 355.00 229.04 C 354.83 229.15 354.70 229.29 354.60 229.46 C 354.98 228.62 355.96 227.99 356.60 227.34 C 357.45 226.47 357.29 225.57 357.70 224.50 C 358.04 223.63 358.30 222.67 359.15 222.18 C 360.09 221.65 360.60 221.22 360.98 220.19 C 361.23 219.53 361.70 218.60 361.53 218.79 L 371.92 218.71 L 371.77 223.24 L 364.07 223.32 L 363.71 230.09 C 363.25 230.42 362.60 230.46 362.12 230.76 C 361.40 231.21 361.11 231.69 361.17 232.54 C 361.20 233.03 361.58 235.61 361.05 235.76 L 352.48 235.76 C 351.82 235.76 351.72 236.83 351.79 237.30" stroke-linecap="round"></path>
</g>
		<g id="sy">
<path style="stroke: rgb(255,255,255); stroke-opacity: 1.00; stroke-width: 0.1; stroke-dasharray: none; stroke-linecap: butt; stroke-dashoffset: 0; stroke-linejoin: miter; stroke-miterlimit: 10; fill: rgb(219,219,219); fill-opacity: 1.00; fill-rule: nonzero; opacity: 1;" transform="matrix(3.944051 0 0 3.944051 352.234735 236.108075) matrix(1 0 0 1 38.353186 -38.01839)  translate(-479.273194, -199.623395)" d="M 472.28 203.75 C 472.48 203.50 472.85 202.99 473.20 202.92 C 472.67 202.43 473.43 202.12 473.87 202.25 C 473.48 201.78 474.06 201.72 474.19 201.27 C 474.27 201.02 473.96 200.51 473.67 200.46 C 473.34 200.40 473.97 199.93 473.46 200.07 C 472.61 200.31 472.55 199.77 472.51 199.33 C 472.48 198.93 472.73 198.21 472.38 197.91 C 472.09 197.68 472.31 197.06 472.30 196.71 C 472.29 196.46 472.77 196.86 472.86 196.91 C 472.87 196.94 472.98 196.68 473.18 196.55 C 473.44 196.40 473.27 196.06 473.31 195.82 C 473.53 195.88 473.76 195.81 473.98 195.80 C 473.80 195.44 473.69 195.35 473.64 194.92 C 473.62 194.76 473.64 194.32 473.86 194.26 C 474.02 194.22 474.19 194.22 474.32 194.29 C 474.68 194.48 474.75 194.79 475.11 194.74 C 475.56 194.67 475.85 194.61 476.28 194.43 C 476.72 194.24 477.04 193.98 477.53 194.05 C 477.89 194.10 478.10 194.36 478.41 194.50 C 478.76 194.67 479.44 194.60 479.82 194.56 C 480.79 194.48 481.48 193.93 482.35 193.58 C 483.23 193.23 484.20 193.72 485.11 193.36 C 485.57 193.18 486.25 192.47 486.32 193.57 C 486.33 193.83 485.70 194.35 485.52 194.53 C 485.20 194.86 484.83 194.84 484.46 195.05 C 483.67 195.52 484.50 196.53 484.56 197.08 C 484.60 197.41 484.40 197.82 484.37 198.16 C 484.34 198.67 484.37 199.49 484.37 199.99 C 484.36 201.16 479.42 203.41 476.91 205.13 C 476.23 205.59 475.12 206.72 474.23 206.10 C 473.91 205.87 473.68 205.70 473.34 205.47 C 472.77 205.07 472.51 205.37 472.41 205.35 C 472.39 205.28 472.62 203.89 472.28 203.75" stroke-linecap="round"></path>
</g>
		<g id="path4692">
<path style="stroke: rgb(255,255,255); stroke-opacity: 1.00; stroke-width: 0.322538; stroke-dasharray: none; stroke-linecap: butt; stroke-dashoffset: 0; stroke-linejoin: miter; stroke-miterlimit: 10; fill: rgb(255,255,255); fill-opacity: 1.00; fill-rule: nonzero; opacity: 1;" transform="matrix(3.944051 0 0 3.944051 352.234735 236.108075) matrix(0.310041 0 0 0.310041 87.226345 0.57296)  translate(-1742.862868, -627.9125)" d="M 1741.97 630.14 C 1742.64 629.55 1742.87 628.76 1743.19 627.95 C 1743.38 627.71 1743.59 627.51 1743.84 627.34 C 1744.11 627.02 1743.41 626.01 1743.34 625.68 C 1742.97 627.24 1741.34 628.40 1741.97 630.14" stroke-linecap="round"></path>
</g>
		<g id="path4696">
<path style="stroke: rgb(255,255,255); stroke-opacity: 1.00; stroke-width: 0.322538; stroke-dasharray: none; stroke-linecap: butt; stroke-dashoffset: 0; stroke-linejoin: miter; stroke-miterlimit: 10; fill: rgb(219,219,219); fill-opacity: 1.00; fill-rule: nonzero; opacity: 1;" transform="matrix(3.944051 0 0 3.944051 352.234735 236.108075) matrix(0.310041 0 0 0.310041 80.149819 -14.368327)  translate(-1720.038349, -579.721098)" d="M 1718.64 579.10 C 1718.85 578.52 1719.11 577.97 1719.43 577.44 C 1720.11 578.20 1720.76 577.17 1720.44 576.50 C 1721.02 576.82 1722.20 578.81 1720.73 578.45 C 1721.67 579.10 1720.98 583.12 1719.94 582.93 C 1718.53 582.68 1720.44 579.19 1718.64 579.10" stroke-linecap="round"></path>
</g>
		<g id="path4786">
<path style="stroke: rgb(255,255,255); stroke-opacity: 1.00; stroke-width: 0.322538; stroke-dasharray: none; stroke-linecap: butt; stroke-dashoffset: 0; stroke-linejoin: miter; stroke-miterlimit: 10; fill: rgb(219,219,219); fill-opacity: 1.00; fill-rule: nonzero; opacity: 1;" transform="matrix(3.944051 0 0 3.944051 352.234735 236.108075) matrix(0.310041 0 0 0.310041 80.463225 -0.495317)  translate(-1721.049165, -624.46684)" d="M 1692.71 639.40 C 1703.24 636.98 1709.83 634.44 1714.60 631.85 C 1716.55 628.13 1714.45 633.99 1715.39 629.85 C 1716.15 626.46 1716.68 623.09 1717.44 619.86 C 1717.97 617.63 1719.22 614.83 1717.93 612.70 C 1717.00 611.18 1715.12 609.87 1714.53 608.18 C 1713.79 606.06 1717.80 598.76 1715.83 597.60 C 1716.71 596.55 1718.45 597.46 1719.22 596.45 C 1720.06 595.34 1718.71 595.71 1718.43 595.15 C 1717.69 593.67 1717.11 590.40 1718.10 588.90 C 1718.56 588.19 1719.50 589.28 1719.35 589.83 C 1718.89 591.57 1720.65 589.69 1720.93 589.42 C 1721.78 588.60 1721.78 588.74 1722.31 589.90 C 1723.20 591.81 1724.36 593.63 1725.78 595.20 C 1728.01 597.68 1731.14 598.58 1734.33 599.22 C 1735.82 599.52 1737.09 600.10 1738.60 600.27 C 1740.63 600.50 1741.74 602.97 1742.91 604.35 C 1743.84 605.47 1744.48 606.81 1745.42 607.88 C 1746.39 608.99 1746.90 609.03 1748.19 609.54 C 1751.20 610.75 1747.79 615.02 1747.19 616.79 C 1746.06 620.13 1742.48 621.87 1741.51 625.45 C 1741.29 626.29 1740.97 628.73 1739.64 628.33 C 1738.58 628.01 1738.78 625.99 1737.43 626.83 C 1735.81 627.81 1735.90 631.33 1735.49 632.77 C 1734.94 634.66 1735.56 636.13 1736.06 637.96 C 1736.46 639.45 1736.72 640.58 1734.90 640.64 C 1731.98 640.72 1728.77 641.59 1728.05 644.73 C 1727.77 645.97 1727.54 647.33 1726.77 648.38 C 1725.80 649.68 1723.87 649.61 1722.34 649.72 C 1720.49 649.86 1719.75 650.16 1718.66 651.62 C 1717.61 653.03 1718.29 653.30 1718.21 654.91 C 1718.14 656.20 1716.82 657.13 1715.79 657.63 C 1715.29 657.87 1714.79 658.19 1714.28 657.79 C 1713.40 657.10 1712.68 657.29 1711.59 657.29 C 1708.43 657.29 1705.67 660.35 1702.48 660.26 C 1700.42 660.21 1701.34 655.16 1699.13 654.91 C 1700.07 653.93 1697.78 650.49 1697.31 649.62 C 1695.68 646.61 1693.75 642.62 1692.68 639.36" stroke-linecap="round"></path>
</g>
		<g id="path5410">
<path style="stroke: rgb(255,255,255); stroke-opacity: 1.00; stroke-width: 0.1; stroke-dasharray: none; stroke-linecap: butt; stroke-dashoffset: 0; stroke-linejoin: miter; stroke-miterlimit: 10; fill: rgb(219,219,219); fill-opacity: 1.00; fill-rule: nonzero; opacity: 1;" transform="matrix(3.944051 0 0 3.944051 352.234735 236.108075) matrix(0.310041 0 0 0.310041 -27.324708 -35.258842)  translate(-1343.489914, -467.266606)" d="M 1328.96 464.90 C 1329.13 464.05 1329.92 463.73 1330.54 463.26 C 1331.50 462.53 1331.58 461.88 1332.64 461.07 C 1333.49 460.43 1334.12 459.23 1334.45 458.16 C 1335.11 456.02 1334.93 454.35 1335.03 452.30 C 1335.10 451.01 1334.28 449.88 1334.46 448.59 C 1334.65 447.11 1336.29 444.31 1333.93 443.81 C 1334.78 442.83 1336.16 442.32 1336.81 441.16 C 1337.05 440.73 1336.90 440.00 1337.49 439.83 C 1338.14 439.64 1338.54 439.83 1339.05 439.28 C 1340.17 438.10 1341.34 437.57 1342.91 437.13 C 1343.64 436.92 1344.64 436.37 1345.41 436.68 C 1346.33 437.05 1345.41 437.49 1345.52 438.19 C 1346.28 438.19 1346.47 437.81 1346.02 437.18 C 1347.42 437.49 1347.83 437.27 1348.40 438.55 C 1348.65 439.11 1347.87 439.16 1348.62 439.70 C 1349.20 440.11 1349.30 440.82 1348.76 441.28 C 1348.80 441.24 1349.40 441.95 1350.02 441.69 C 1350.86 441.35 1351.56 440.67 1352.24 440.09 C 1352.51 439.87 1353.43 438.88 1353.86 439.07 C 1354.89 439.54 1354.76 440.56 1354.29 441.40 C 1353.39 443.03 1350.33 444.58 1350.23 446.43 C 1350.15 447.82 1350.97 449.49 1352.22 450.16 C 1354.12 451.18 1354.05 451.23 1354.50 453.41 C 1355.07 456.14 1353.16 458.99 1351.06 460.65 C 1348.97 462.30 1345.77 463.23 1347.84 466.44 C 1348.30 467.14 1348.90 467.81 1349.68 468.16 C 1350.55 468.55 1350.90 468.01 1351.70 468.12 C 1351.96 468.16 1352.12 469.44 1352.28 469.71 C 1352.68 470.37 1353.77 468.43 1354.37 468.64 C 1355.18 468.94 1354.63 469.60 1354.88 470.15 C 1355.22 470.92 1356.39 471.62 1355.17 471.74 C 1355.81 472.43 1357.22 471.67 1357.82 472.46 C 1358.32 473.12 1357.49 475.70 1357.67 476.67 C 1357.94 478.12 1359.00 478.74 1357.41 479.69 C 1355.84 480.63 1352.62 481.68 1351.69 482.97 C 1351.15 483.40 1351.34 484.63 1350.59 484.93 C 1349.00 485.57 1347.49 486.10 1348.12 488.52 C 1348.62 490.46 1349.37 491.98 1348.25 493.88 C 1346.94 496.09 1345.79 496.94 1343.50 497.95 C 1342.95 494.33 1341.91 490.85 1341.20 487.28 C 1340.47 483.57 1340.09 481.44 1336.97 479.70 C 1335.51 478.89 1334.85 477.91 1334.49 476.29 C 1334.17 474.87 1333.52 473.86 1332.23 473.10 C 1331.58 472.72 1330.96 472.41 1330.53 471.73 C 1330.09 471.03 1330.24 470.09 1329.80 469.38 C 1328.88 467.92 1328.38 466.36 1328.96 464.90" stroke-linecap="round"></path>
</g>
		<g id="path5412">
<path style="stroke: rgb(255,255,255); stroke-opacity: 1.00; stroke-width: 0.1; stroke-dasharray: none; stroke-linecap: butt; stroke-dashoffset: 0; stroke-linejoin: miter; stroke-miterlimit: 10; fill: rgb(219,219,219); fill-opacity: 1.00; fill-rule: nonzero; opacity: 1;" transform="matrix(3.944051 0 0 3.944051 352.234735 236.108075) matrix(0.310041 0 0 0.310041 -24.326771 -35.208854)  translate(-1353.159435, -467.427884)" d="M 1353.22 468.50 C 1353.10 467.54 1352.44 468.32 1352.22 467.85 C 1351.68 466.71 1352.21 466.34 1353.17 466.35 C 1355.29 466.38 1353.97 467.65 1353.22 468.50" stroke-linecap="round"></path>
</g>
		<g id="eg">
<path style="stroke: rgb(255,255,255); stroke-opacity: 1.00; stroke-width: 0.1; stroke-dasharray: none; stroke-linecap: butt; stroke-dashoffset: 0; stroke-linejoin: miter; stroke-miterlimit: 10; fill: rgb(219,219,219); fill-opacity: 1.00; fill-rule: nonzero; opacity: 1;" transform="matrix(3.944051 0 0 3.944051 352.234735 236.108075) matrix(1 0 0 1 20.309845 -16.217751)  translate(-461.229852, -221.424034)" d="M 448.29 212.52 C 447.85 211.81 448.76 211.07 448.64 210.35 C 448.52 209.57 447.81 209.03 448.94 208.10 C 448.96 208.67 449.62 208.47 449.96 208.36 C 450.59 208.18 451.10 208.38 451.73 208.45 C 452.41 208.52 453.06 208.67 453.72 208.84 C 454.00 208.92 454.04 209.22 454.33 209.31 C 454.58 209.39 454.77 209.35 455.02 209.33 C 455.19 209.31 455.26 209.57 455.45 209.61 C 455.66 209.65 455.87 209.65 456.08 209.68 C 456.75 209.74 457.20 210.16 457.83 210.27 C 458.43 210.37 459.02 209.96 459.45 209.59 C 459.68 209.39 459.89 209.18 460.10 208.97 C 460.27 209.11 460.41 209.25 460.63 209.22 C 460.50 209.15 460.53 209.12 460.36 209.13 C 460.58 209.01 460.80 208.80 460.86 208.55 C 461.24 208.77 461.59 208.37 461.97 208.37 C 461.72 208.49 461.47 208.63 461.28 208.84 C 461.35 208.80 462.88 208.33 462.15 208.28 C 462.69 208.10 463.05 208.72 463.57 208.65 C 463.82 208.61 464.05 208.37 464.32 208.46 C 464.56 208.54 464.68 208.90 464.90 209.04 C 464.68 208.88 464.45 208.55 464.16 208.53 C 464.24 208.76 463.93 209.19 464.30 209.28 C 464.71 209.38 464.52 209.48 464.78 209.73 C 464.78 209.64 465.51 209.33 464.99 209.08 C 465.55 209.21 465.74 209.73 466.40 209.68 C 466.61 209.66 467.24 209.26 467.13 209.73 C 467.54 209.47 468.00 209.62 468.44 209.49 C 468.82 209.37 469.21 209.22 469.52 208.95 L 471.41 213.93 C 470.93 214.54 471.04 215.66 470.73 216.37 C 470.55 216.79 470.56 217.06 470.57 217.50 C 470.57 217.88 470.09 218.25 470.21 218.62 C 469.98 218.40 469.67 218.31 469.41 218.13 C 469.09 217.90 468.87 217.57 468.64 217.26 C 468.36 216.85 467.55 216.59 467.66 215.98 C 467.78 215.37 467.20 214.95 466.89 214.52 C 466.48 213.92 466.18 213.23 466.01 212.52 C 465.73 212.82 465.43 213.48 465.73 213.82 C 466.23 214.41 466.17 215.13 466.59 215.74 C 466.95 216.26 467.32 216.91 467.77 217.35 C 467.97 217.55 468.20 217.72 468.39 217.94 C 468.48 218.05 468.87 218.70 468.40 218.35 C 468.78 218.65 468.47 219.03 468.71 219.28 C 469.04 219.61 469.21 219.96 469.38 220.37 C 469.47 220.58 469.60 220.76 469.72 220.94 C 469.81 221.08 469.63 221.26 469.62 221.40 C 469.61 221.58 469.92 221.86 470.00 222.02 C 470.19 222.38 470.39 222.74 470.58 223.10 C 471.21 224.29 471.84 225.47 472.43 226.68 C 472.66 227.15 473.01 227.49 473.30 227.92 C 473.57 228.31 474.04 228.44 474.29 228.84 C 474.06 228.85 473.82 228.81 473.60 228.71 C 473.45 229.35 473.52 230.34 473.85 230.72 C 474.17 231.09 473.44 231.82 473.00 231.84 C 472.78 231.85 472.69 231.69 472.47 231.94 C 472.30 232.13 472.21 232.46 472.13 232.71 C 472.04 233.00 471.90 233.26 471.58 233.33 C 471.33 233.39 470.86 233.34 470.73 233.63 C 470.48 234.17 470.63 234.80 469.87 234.74 C 468.98 234.67 468.53 233.95 468.06 233.97 C 466.52 234.04 465.64 234.18 464.43 233.97 C 464.46 233.85 464.60 233.60 464.52 233.47 C 464.30 233.16 464.13 233.73 464.06 233.83 C 463.77 234.24 462.32 234.00 461.86 234.00 L 449.43 233.97 L 448.99 217.17 C 448.94 216.38 448.96 215.56 448.85 214.78 C 448.76 214.11 448.59 213.12 448.29 212.52" stroke-linecap="round"></path>
</g>
		<g id="path3234">
<path style="stroke: rgb(255,255,255); stroke-opacity: 1.00; stroke-width: 0.322538; stroke-dasharray: none; stroke-linecap: butt; stroke-dashoffset: 0; stroke-linejoin: miter; stroke-miterlimit: 10; fill: rgb(219,219,219); fill-opacity: 1.00; fill-rule: nonzero; opacity: 1;" transform="matrix(3.944051 0 0 3.944051 352.234735 236.108075) matrix(0.310041 0 0 0.310041 48.544335 10.550994)  translate(-1618.0985, -660.0955)" d="M 1619.72 661.32 C 1619.68 660.51 1619.34 659.75 1618.64 659.30 C 1618.62 659.57 1618.60 659.83 1618.56 660.10 C 1617.62 660.13 1617.28 659.14 1616.48 658.87 C 1617.26 660.17 1619.27 660.14 1619.72 661.32" stroke-linecap="round"></path>
</g>
		<g id="path3380">
<path style="stroke: rgb(255,255,255); stroke-opacity: 1.00; stroke-width: 0.322538; stroke-dasharray: none; stroke-linecap: butt; stroke-dashoffset: 0; stroke-linejoin: miter; stroke-miterlimit: 10; fill: rgb(219,219,219); fill-opacity: 1.00; fill-rule: nonzero; opacity: 1;" transform="matrix(3.944051 0 0 3.944051 352.234735 236.108075) matrix(0.310041 0 0 0.310041 54.875568 -9.68255)  translate(-1638.519041, -594.83443)" d="M 1624.55 662.65 C 1624.64 661.75 1624.09 659.59 1623.27 659.07 C 1622.86 658.81 1620.84 654.57 1620.96 656.62 C 1620.77 652.96 1618.24 652.02 1616.22 649.54 C 1615.45 648.60 1614.38 647.25 1614.02 646.10 C 1613.56 644.62 1612.72 644.20 1611.96 643.00 C 1611.52 642.29 1611.90 641.67 1611.38 640.95 C 1611.02 640.43 1610.41 638.79 1610.17 638.13 C 1609.94 637.51 1609.81 636.86 1609.52 636.27 C 1609.25 635.72 1608.69 635.64 1608.42 635.16 C 1608.17 634.70 1608.41 634.07 1608.06 633.66 C 1607.71 633.25 1607.12 633.20 1606.73 632.84 C 1605.75 631.93 1604.62 631.01 1603.76 629.99 C 1602.71 628.76 1601.49 629.28 1600.30 628.41 C 1598.35 626.96 1597.04 624.28 1595.81 622.22 C 1595.09 621.03 1595.30 620.34 1595.24 619.08 C 1595.17 617.71 1594.18 616.58 1594.08 615.19 C 1593.95 613.38 1594.70 611.57 1594.34 609.77 C 1594.17 608.94 1593.72 608.25 1593.28 607.55 C 1593.05 607.18 1591.64 605.37 1593.23 606.61 C 1592.88 605.70 1592.09 605.69 1591.88 604.69 C 1591.70 603.80 1591.26 602.82 1590.91 601.98 C 1589.94 599.64 1588.06 598.05 1586.29 596.37 C 1585.00 595.15 1583.73 594.95 1582.15 594.52 C 1581.48 594.34 1581.16 593.07 1580.97 592.52 C 1580.55 591.36 1579.73 590.56 1579.00 589.58 C 1581.53 588.66 1578.00 584.51 1577.18 583.50 C 1576.62 582.83 1575.06 581.60 1575.13 580.71 C 1575.24 579.17 1573.27 578.29 1572.60 576.90 C 1570.58 572.71 1567.40 569.23 1565.17 565.12 C 1564.49 563.87 1563.73 561.94 1562.23 561.52 C 1561.54 561.32 1558.86 560.88 1558.81 562.14 C 1557.91 561.32 1559.36 559.16 1559.61 558.30 C 1560.14 556.50 1559.72 554.62 1560.02 552.80 C 1560.39 550.49 1560.03 551.93 1560.35 550.55 C 1562.08 551.06 1566.82 552.33 1568.54 551.96 C 1571.95 551.22 1571.90 546.25 1575.11 545.74 C 1576.31 545.55 1579.26 545.86 1579.13 544.24 C 1578.84 540.54 1580.45 541.65 1582.69 540.89 C 1579.77 538.09 1576.98 535.17 1574.31 532.14 C 1579.50 531.05 1582.95 529.88 1589.07 526.61 C 1591.66 527.11 1596.29 527.39 1599.13 528.71 C 1608.68 533.13 1616.55 539.89 1624.84 546.20 C 1626.60 547.54 1628.31 548.86 1629.94 550.34 C 1631.81 552.01 1633.11 551.93 1635.57 552.17 C 1638.40 552.44 1641.39 552.84 1644.23 553.10 C 1645.27 553.20 1645.79 552.67 1646.92 552.91 C 1648.44 553.24 1650.03 553.43 1651.58 553.57 C 1653.23 553.72 1653.36 555.63 1653.89 556.85 C 1654.66 558.65 1657.29 557.51 1658.78 557.64 C 1660.32 557.78 1660.52 558.61 1661.03 559.87 C 1661.57 561.24 1664.28 562.98 1663.86 564.51 C 1663.72 564.27 1663.55 564.05 1663.35 563.86 C 1662.89 564.96 1663.99 564.83 1663.86 565.80 C 1663.88 565.82 1668.49 566.24 1666.73 567.60 C 1667.41 567.81 1668.84 571.27 1669.53 569.32 C 1669.07 571.06 1673.24 573.01 1674.20 574.07 C 1673.69 573.91 1673.30 573.60 1673.05 573.13 C 1673.07 575.05 1674.23 575.07 1674.65 576.61 C 1674.89 577.51 1674.79 579.41 1673.48 578.23 C 1673.60 579.25 1673.27 579.46 1674.20 579.65 C 1674.34 579.67 1675.56 582.31 1675.64 582.62 C 1675.37 582.38 1675.11 582.14 1674.85 581.90 C 1675.65 583.07 1677.07 583.72 1677.70 585.02 C 1678.34 586.33 1678.53 587.53 1679.30 588.80 C 1679.89 589.77 1680.74 591.45 1681.97 591.75 C 1682.52 591.89 1684.55 591.36 1684.26 592.46 C 1684.47 591.90 1684.96 591.70 1685.48 592.03 C 1684.80 592.86 1684.18 595.14 1686.49 594.55 C 1686.34 594.59 1687.67 597.18 1687.80 597.37 C 1690.46 600.39 1694.04 605.70 1695.45 606.27 C 1704.22 607.25 1708.27 607.72 1713.04 608.78 C 1713.66 608.64 1714.20 608.26 1714.40 607.86 C 1715.47 610.32 1717.88 611.61 1718.29 613.20 C 1718.66 614.65 1718.55 615.60 1718.18 617.09 C 1716.91 622.06 1716.21 631.01 1714.38 631.99 C 1701.88 638.73 1686.25 641.08 1671.40 643.54 C 1669.47 644.22 1667.62 645.09 1665.86 646.11 C 1663.22 647.64 1660.65 652.24 1659.79 654.98 C 1659.39 656.25 1657.90 657.63 1656.51 657.64 C 1655.05 657.65 1654.78 655.28 1653.59 654.88 C 1652.24 654.42 1651.25 655.11 1650.08 654.97 C 1648.28 654.75 1645.86 655.03 1644.24 654.20 C 1642.29 653.19 1640.86 653.66 1638.70 653.66 C 1636.81 653.66 1634.81 654.82 1632.93 654.80 C 1630.59 654.77 1630.25 652.99 1629.03 653.31 C 1627.40 653.74 1626.97 655.88 1626.88 657.23 C 1626.79 658.57 1628.46 659.34 1627.04 660.31 C 1626.77 660.49 1626.49 662.38 1624.45 663.06 C 1624.44 662.88 1624.56 662.83 1624.55 662.65" stroke-linecap="round"></path>
</g>
		<g id="path5480">
<path style="stroke: rgb(255,255,255); stroke-opacity: 1.00; stroke-width: 0.322538; stroke-dasharray: none; stroke-linecap: butt; stroke-dashoffset: 0; stroke-linejoin: miter; stroke-miterlimit: 10; fill: rgb(219,219,219); fill-opacity: 1.00; fill-rule: nonzero; opacity: 1;" transform="matrix(3.944051 0 0 3.944051 352.234735 236.108075) matrix(0.310041 0 0 0.310041 48.366539 9.825653)  translate(-1617.525042, -657.756)" d="M 1617.27 657.50 C 1617.80 657.64 1617.92 657.80 1617.63 658.01 C 1617.51 657.84 1617.39 657.67 1617.27 657.50" stroke-linecap="round"></path>
</g>
		<g id="path5482">
<path style="stroke: rgb(255,255,255); stroke-opacity: 1.00; stroke-width: 0.322538; stroke-dasharray: none; stroke-linecap: butt; stroke-dashoffset: 0; stroke-linejoin: miter; stroke-miterlimit: 10; fill: rgb(219,219,219); fill-opacity: 1.00; fill-rule: nonzero; opacity: 1;" transform="matrix(3.944051 0 0 3.944051 352.234735 236.108075) matrix(0.310041 0 0 0.310041 48.34086 10.060045)  translate(-1617.442217, -658.512)" d="M 1617.63 658.01 C 1617.85 658.32 1617.89 658.65 1617.77 659.02 C 1617.50 658.94 1617.27 658.82 1617.05 658.66 C 1617.24 658.44 1617.43 658.22 1617.63 658.01" stroke-linecap="round"></path>
</g>
		<g id="path5488">
<path style="stroke: rgb(255,255,255); stroke-opacity: 1.00; stroke-width: 0.322538; stroke-dasharray: none; stroke-linecap: butt; stroke-dashoffset: 0; stroke-linejoin: miter; stroke-miterlimit: 10; fill: rgb(255,255,255); fill-opacity: 1.00; fill-rule: nonzero; opacity: 1;" transform="matrix(3.944051 0 0 3.944051 352.234735 236.108075) matrix(0.310041 0 0 0.310041 64.492974 -17.933213)  translate(-1669.539, -568.222971)" d="M 1668.89 568.37 C 1669.24 567.83 1669.80 567.97 1670.19 568.37 C 1669.75 568.45 1669.32 568.45 1668.89 568.37" stroke-linecap="round"></path>
</g>
		<g id="dj">
<path style="stroke: rgb(255,255,255); stroke-opacity: 1.00; stroke-width: 0.1; stroke-dasharray: none; stroke-linecap: butt; stroke-dashoffset: 0; stroke-linejoin: miter; stroke-miterlimit: 10; fill: rgb(219,219,219); fill-opacity: 1.00; fill-rule: nonzero; opacity: 1;" transform="matrix(3.944051 0 0 3.944051 352.234735 236.108075) matrix(1 0 0 1 50.513696 23.631198)  translate(-491.433704, -261.272983)" d="M 489.61 263.42 C 489.61 262.70 489.33 261.98 489.76 261.33 C 490.09 260.84 490.39 260.40 490.68 259.88 C 491.01 259.28 491.18 259.61 491.65 259.73 C 491.89 259.80 491.88 259.42 491.98 259.30 C 492.12 259.10 492.38 259.03 492.58 258.91 C 492.78 259.36 493.65 260.21 493.24 260.74 C 493.02 261.02 492.35 261.33 492.03 261.45 C 491.70 261.58 491.66 261.97 491.28 262.03 C 491.53 262.35 492.26 261.83 492.62 261.97 C 493.27 262.22 492.62 262.85 492.45 263.20 C 492.19 263.74 491.78 263.18 491.37 263.29 C 490.96 263.39 489.88 263.93 489.61 263.42" stroke-linecap="round"></path>
</g>
		<g id="ma">
<path style="stroke: rgb(255,255,255); stroke-opacity: 1.00; stroke-width: 0.1; stroke-dasharray: none; stroke-linecap: butt; stroke-dashoffset: 0; stroke-linejoin: miter; stroke-miterlimit: 10; fill: rgb(219,219,219); fill-opacity: 1.00; fill-rule: nonzero; opacity: 1;" transform="matrix(3.944051 0 0 3.944051 352.234735 236.108075) matrix(1 0 0 1 -65.293434 -29.833099)  translate(-375.626574, -207.808686)" d="M 361.58 218.79 C 361.69 218.68 362.04 218.12 362.16 218.08 C 362.60 217.92 363.08 217.90 363.54 217.80 C 364.38 217.61 365.23 217.35 365.87 216.74 C 366.49 216.14 367.14 215.67 367.79 215.12 C 368.41 214.59 368.89 213.88 369.39 213.24 C 369.73 212.80 370.51 211.54 369.85 211.07 C 369.60 210.88 369.42 210.88 369.58 210.54 C 369.74 210.20 369.73 209.86 369.74 209.49 C 369.79 208.46 370.17 208.00 370.80 207.23 C 371.16 206.80 371.06 206.35 371.21 205.85 C 371.32 205.48 371.62 205.20 371.89 204.95 C 372.47 204.42 372.94 203.77 373.67 203.43 C 374.46 203.07 375.31 202.79 376.07 202.36 C 377.58 201.50 378.30 199.41 378.87 197.88 C 378.93 197.73 379.13 196.97 379.35 197.00 C 379.64 197.02 379.92 196.91 380.16 196.78 C 380.46 196.62 380.52 197.02 380.61 197.24 C 380.78 197.66 381.01 197.94 381.37 198.20 C 382.14 198.75 382.78 198.59 383.66 198.49 C 384.39 198.40 385.32 198.85 385.76 197.99 C 385.75 198.27 385.83 198.34 385.87 198.55 C 385.91 198.78 386.32 198.89 385.96 198.52 C 386.16 198.79 386.51 198.93 386.82 198.78 C 387.14 198.62 387.33 198.95 387.53 199.13 C 387.74 199.32 388.11 199.43 388.24 199.71 C 388.38 200.02 388.07 200.31 388.51 200.49 C 388.27 200.67 388.35 201.02 388.39 201.27 C 388.47 201.66 388.33 202.01 388.38 202.39 C 388.41 202.70 388.61 202.89 388.54 203.22 C 388.42 203.72 388.48 203.89 388.71 204.33 C 388.83 204.55 388.73 204.75 388.85 204.95 C 389.02 205.25 389.30 205.37 389.57 205.58 C 390.05 205.96 388.60 206.60 389.38 206.90 C 388.58 207.10 385.77 206.14 385.35 207.23 C 385.14 207.79 384.58 208.01 383.97 207.96 C 383.51 207.92 382.95 208.58 383.57 208.75 C 383.04 209.23 384.02 209.59 383.78 209.82 C 383.52 210.08 383.05 209.99 382.77 210.20 C 382.47 210.42 382.14 210.74 381.79 210.87 C 381.52 210.96 381.21 210.95 380.96 211.09 C 380.47 211.36 380.28 211.94 379.92 212.34 C 379.51 212.79 378.75 212.97 378.16 213.00 C 377.71 213.01 377.23 212.83 377.05 213.36 C 376.85 213.93 376.29 213.50 375.85 213.54 C 375.53 213.56 375.35 213.72 375.14 213.94 C 374.94 214.16 374.69 214.11 374.44 214.22 C 374.14 214.33 373.95 214.63 373.72 214.83 C 373.47 215.04 373.15 215.17 372.90 215.38 C 372.39 215.78 371.95 215.84 372.00 216.55 C 372.05 217.25 371.98 218.02 371.90 218.72 C 371.87 219.02 362.54 218.79 361.58 218.79" stroke-linecap="round"></path>
</g>
		<g id="lb-">
<path style="stroke: rgb(255,255,255); stroke-opacity: 1.00; stroke-width: 0.322538; stroke-dasharray: none; stroke-linecap: butt; stroke-dashoffset: 0; stroke-linejoin: miter; stroke-miterlimit: 10; fill: rgb(219,219,219); fill-opacity: 1.00; fill-rule: nonzero; opacity: 1;" transform="matrix(3.944051 0 0 3.944051 352.234735 236.108075) matrix(0.310041 0 0 0.310041 31.779768 -35.508996)  translate(-1534.124611, -466.459802)" d="M 1529.12 473.25 C 1530.71 471.40 1530.65 468.05 1532.00 465.97 C 1532.67 464.94 1531.89 463.54 1532.66 462.55 C 1533.26 461.78 1534.89 460.92 1534.37 459.72 C 1534.98 459.85 1535.92 460.11 1536.51 459.76 C 1537.87 458.95 1536.91 460.49 1537.11 460.95 C 1537.08 460.89 1538.00 461.24 1538.10 461.33 C 1538.78 461.99 1538.40 461.84 1538.92 462.79 C 1540.02 464.81 1536.49 465.14 1537.90 466.84 C 1536.47 466.42 1534.04 467.42 1535.74 469.00 C 1535.10 469.15 1532.95 471.24 1532.86 471.88 C 1532.70 471.80 1532.58 471.68 1532.50 471.52 C 1532.26 471.99 1532.25 472.54 1531.99 473.02 C 1531.45 474.02 1529.90 472.62 1529.12 473.25" stroke-linecap="round"></path>
</g>
		<g id="path5440">
<path style="stroke: rgb(255,255,255); stroke-opacity: 1.00; stroke-width: 0.1; stroke-dasharray: none; stroke-linecap: butt; stroke-dashoffset: 0; stroke-linejoin: miter; stroke-miterlimit: 10; fill: rgb(219,219,219); fill-opacity: 1.00; fill-rule: nonzero; opacity: 1;" transform="matrix(3.944051 0 0 3.944051 352.234735 236.108075) matrix(0.310041 0 0 0.310041 60.741204 -24.566526)  translate(-1657.438095, -546.827986)" d="M 1657.01 545.26 C 1657.15 545.57 1655.31 548.61 1657.59 548.39 C 1659.56 548.19 1657.55 545.92 1657.01 545.26" stroke-linecap="round"></path>
</g>
		<g id="path5486">
<path style="stroke: rgb(255,255,255); stroke-opacity: 1.00; stroke-width: 0.1; stroke-dasharray: none; stroke-linecap: butt; stroke-dashoffset: 0; stroke-linejoin: miter; stroke-miterlimit: 10; fill: rgb(219,219,219); fill-opacity: 1.00; fill-rule: nonzero; opacity: 1;" transform="matrix(3.944051 0 0 3.944051 352.234735 236.108075) matrix(0.310041 0 0 0.310041 59.306496 -23.217577)  translate(-1652.8106, -551.178859)" d="M 1645.71 552.82 C 1648.91 551.65 1647.42 545.15 1650.77 544.54 C 1652.06 544.30 1653.90 544.18 1655.60 545.58 C 1656.04 545.94 1657.16 548.29 1656.72 548.86 C 1655.77 547.52 1654.41 549.78 1653.91 550.44 C 1655.37 550.25 1657.00 550.81 1657.36 552.39 C 1657.80 554.31 1659.27 556.03 1659.91 557.97 C 1658.67 557.26 1655.59 558.45 1654.38 557.60 C 1653.43 556.94 1653.31 555.50 1652.94 554.50 C 1652.43 553.17 1647.65 553.53 1645.71 552.81" stroke-linecap="round"></path>
</g>
		<g id="qa-">
<path style="stroke: rgb(255,255,255); stroke-opacity: 1.00; stroke-width: 0.1; stroke-dasharray: none; stroke-linecap: butt; stroke-dashoffset: 0; stroke-linejoin: miter; stroke-miterlimit: 10; fill: rgb(219,219,219); fill-opacity: 1.00; fill-rule: nonzero; opacity: 1;" transform="matrix(3.944051 0 0 3.944051 352.234735 236.108075) matrix(0.310041 0 0 0.310041 68.634746 -12.610606)  translate(-1652.996102, -540.315921)" d="M 1649.79 540.79 C 1649.74 540.40 1649.18 538.00 1650.29 539.13 C 1650.22 538.75 1649.97 536.59 1650.66 538.41 C 1650.71 536.60 1651.36 531.80 1653.86 534.45 C 1654.49 535.11 1655.69 535.58 1655.70 536.62 C 1655.70 537.34 1655.34 537.80 1655.18 538.46 C 1655.03 539.04 1655.39 539.78 1655.44 540.36 C 1655.50 540.93 1656.11 540.94 1656.27 541.44 C 1656.53 542.25 1656.33 542.98 1656.01 543.73 C 1655.44 545.02 1655.63 545.96 1654.21 546.39 C 1653.03 546.74 1651.97 547.68 1651.18 545.95 C 1650.46 544.37 1650.16 542.47 1649.79 540.79" stroke-linecap="round"></path>
</g>
		<g id="path5472">
<path style="stroke: rgb(255,255,255); stroke-opacity: 1.00; stroke-width: 0.322538; stroke-dasharray: none; stroke-linecap: butt; stroke-dashoffset: 0; stroke-linejoin: miter; stroke-miterlimit: 10; fill: rgb(219,219,219); fill-opacity: 1.00; fill-rule: nonzero; opacity: 1;" transform="matrix(3.944051 0 0 3.944051 352.234735 236.108075) matrix(0.310041 0 0 0.310041 28.910683 -28.874876)  translate(-1554.772414, -532.9319)" d="M 1553.76 533.59 C 1554.45 532.91 1555.10 532.15 1555.56 531.29 C 1556.42 531.83 1554.59 534.16 1554.19 534.58 C 1554.02 534.28 1553.87 533.92 1553.76 533.59" stroke-linecap="round"></path>
</g>
		<g id="path5474">
<path style="stroke: rgb(255,255,255); stroke-opacity: 1.00; stroke-width: 0.322538; stroke-dasharray: none; stroke-linecap: butt; stroke-dashoffset: 0; stroke-linejoin: miter; stroke-miterlimit: 10; fill: rgb(219,219,219); fill-opacity: 1.00; fill-rule: nonzero; opacity: 1;" transform="matrix(3.944051 0 0 3.944051 352.234735 236.108075) matrix(0.310041 0 0 0.310041 30.816225 -30.332302)  translate(-1560.918518, -528.231134)" d="M 1558.66 526.10 C 1559.02 525.25 1559.15 522.84 1560.62 523.13 C 1561.12 523.23 1562.61 524.10 1562.80 524.59 C 1563.34 526.03 1563.20 528.04 1563.15 529.61 C 1563.12 530.68 1563.10 531.83 1562.54 532.10 L 1560.44 533.08 C 1559.45 533.54 1558.46 533.58 1558.88 532.02 C 1559.00 531.60 1560.47 529.43 1560.68 529.50 C 1560.24 529.35 1559.11 529.78 1558.85 529.02 C 1558.38 527.68 1558.85 526.67 1558.66 526.10" stroke-linecap="round"></path>
</g>
		<g id="bh-">
<path style="stroke: rgb(255,255,255); stroke-opacity: 1.00; stroke-width: 0.1; stroke-dasharray: none; stroke-linecap: butt; stroke-dashoffset: 0; stroke-linejoin: miter; stroke-miterlimit: 10; fill: none; fill-rule: nonzero; opacity: 1;" transform="matrix(3.944051 0 0 3.944051 352.234735 236.108075) matrix(0.310041 0 0 0.310041 66.066455 -14.571004)  translate(-1647.563245, -534.563066)" d="M 1646.91 533.09 C 1647.14 533.56 1647.23 534.07 1647.20 534.60 C 1647.06 535.29 1647.90 535.79 1648.06 536.40 C 1648.35 535.64 1648.39 531.51 1646.91 533.09" stroke-linecap="round"></path>
</g>
		<g id="bh.">
<circle style="stroke: rgb(255,255,255); stroke-opacity: 1.00; stroke-width: 0.1; stroke-dasharray: none; stroke-linecap: butt; stroke-dashoffset: 0; stroke-linejoin: miter; stroke-miterlimit: 10; fill: none; fill-rule: nonzero; opacity: 1;" cx="0" cy="0" r="6.0130301" transform="matrix(3.944051 0 0 3.944051 352.234735 236.108075) matrix(0.310041 0 0 0.310041 65.454486 -15.53487)"></circle>
</g>
		<g id="path2704">
<path style="stroke: none; stroke-width: 0.322538; stroke-dasharray: none; stroke-linecap: butt; stroke-dashoffset: 0; stroke-linejoin: miter; stroke-miterlimit: 10; fill: rgb(219,219,219); fill-opacity: 1.00; fill-rule: nonzero; opacity: 1;" transform="matrix(3.944051 0 0 3.944051 352.234735 236.108075) matrix(0.310041 0 0 0.310041 74.919578 -9.523816)  translate(-1703.233, -595.421169)" d="M 1703.02 595.87 C 1703.52 595.90 1703.90 595.71 1704.17 595.30 C 1703.52 594.76 1702.69 594.88 1702.30 595.66 C 1702.54 595.73 1702.78 595.80 1703.02 595.87" stroke-linecap="round"></path>
</g>
		<g id="path2784">
<path style="stroke: none; stroke-width: 0.322538; stroke-dasharray: none; stroke-linecap: butt; stroke-dashoffset: 0; stroke-linejoin: miter; stroke-miterlimit: 10; fill: rgb(219,219,219); fill-opacity: 1.00; fill-rule: nonzero; opacity: 1;" transform="matrix(3.944051 0 0 3.944051 352.234735 236.108075) matrix(0.310041 0 0 0.310041 75.17428 -9.990987)  translate(-1704.054488, -593.914341)" d="M 1686.32 594.58 C 1686.81 594.25 1687.35 594.66 1687.24 595.37 C 1687.48 595.14 1687.36 594.71 1687.61 594.50 C 1688.07 595.19 1687.66 596.17 1688.19 596.81 C 1688.70 597.42 1689.88 597.28 1690.57 597.24 C 1691.47 597.19 1692.22 597.05 1692.91 596.42 C 1693.23 596.14 1693.59 595.32 1694.02 595.22 C 1694.48 595.12 1695.63 595.82 1696.20 595.83 C 1697.14 595.85 1698.07 595.96 1699.00 595.93 C 1701.53 595.84 1703.28 597.00 1705.76 595.51 C 1705.53 595.17 1705.29 594.83 1705.04 594.50 C 1705.82 594.21 1705.71 595.15 1706.33 595.08 C 1707.23 594.98 1707.99 593.90 1708.35 593.18 C 1709.35 591.22 1709.48 590.11 1711.22 588.65 C 1712.92 587.23 1713.61 584.68 1715.21 583.36 C 1716.99 581.89 1718.06 581.50 1718.57 579.10 C 1719.86 579.16 1719.30 581.03 1719.31 581.82 C 1719.33 583.32 1720.95 582.56 1721.15 584.22 C 1721.34 585.89 1722.48 588.06 1721.17 589.35 C 1718.37 592.10 1719.93 589.71 1719.20 589.01 C 1718.29 588.13 1717.72 589.38 1717.57 590.62 C 1717.50 591.16 1717.52 591.21 1717.60 591.79 C 1717.69 592.40 1717.88 593.58 1718.01 594.24 C 1718.46 596.40 1719.98 595.36 1719.39 596.34 C 1718.75 597.41 1716.63 596.68 1715.82 597.65 C 1717.70 598.70 1714.62 604.52 1714.38 607.56 C 1714.41 608.30 1713.60 609.02 1711.88 608.62 C 1709.76 608.12 1707.57 607.92 1705.41 607.60 C 1703.16 607.27 1700.90 606.93 1698.64 606.65 C 1696.97 606.44 1695.79 606.39 1695.56 606.22 C 1693.76 604.91 1692.62 603.37 1691.28 601.62 C 1690.48 600.57 1688.80 598.63 1687.88 597.34 C 1687.02 596.13 1686.74 595.09 1686.64 594.59" stroke-linecap="round"></path>
</g>
</g>
</g>

  </svg>