<svg id="svg" version="1.1" xmlns="http://www.w3.org/2000/svg" xmlns:xlink="http://www.w3.org/1999/xlink" width="400" height="300" viewBox="0, 0, 400,300"><g id="svgg"><path id="path0" d="M170.000 68.421 C 162.486 68.709,157.025 69.361,152.400 70.522 C 133.424 75.289,121.644 89.273,119.143 110.000 C 117.849 120.730,117.848 179.229,119.142 190.000 C 122.179 215.280,137.736 229.243,165.166 231.308 C 171.197 231.762,228.292 231.757,234.625 231.302 C 261.838 229.346,277.268 215.775,280.736 190.750 C 282.048 181.280,282.143 121.256,280.863 110.314 C 278.088 86.594,263.403 71.847,239.854 69.132 C 233.322 68.379,184.173 67.879,170.000 68.421 M235.250 83.223 C 254.375 84.950,264.069 93.764,266.351 111.500 C 267.280 118.718,267.601 173.400,266.779 184.281 C 265.172 205.533,255.680 215.052,234.375 216.776 C 224.094 217.607,168.727 217.286,161.500 216.352 C 143.757 214.061,134.936 204.358,133.225 185.250 C 132.471 176.824,132.698 118.751,133.513 111.913 C 135.809 92.637,146.234 84.117,168.875 83.013 C 175.250 82.702,231.454 82.880,235.250 83.223 M241.794 96.755 C 230.375 99.135,231.978 115.875,243.625 115.875 C 255.983 115.875,256.673 97.717,244.355 96.657 C 243.541 96.587,242.389 96.631,241.794 96.755 M195.162 108.248 C 163.131 112.279,147.077 149.214,166.201 174.876 C 187.635 203.638,232.899 194.169,240.894 159.250 C 247.293 131.302,223.431 104.691,195.162 108.248 M204.063 122.870 C 226.385 126.235,235.244 153.797,219.063 169.537 C 203.061 185.103,176.192 176.102,172.870 154.063 C 170.124 135.840,185.840 120.124,204.063 122.870 " stroke="none" fill="#fbfbfb" fill-rule="evenodd"></path><path id="path1" d="M189.375 15.022 C 86.141 23.669,30.097 139.619,87.581 225.625 C 112.815 263.379,154.246 285.375,200.125 285.375 C 282.234 285.375,344.695 214.433,334.502 132.750 C 327.167 73.972,281.476 26.451,222.750 16.524 C 213.718 14.997,198.077 14.293,189.375 15.022 M234.375 68.480 C 261.853 70.415,277.503 84.141,280.860 109.250 C 282.167 119.028,282.165 181.039,280.857 190.750 C 277.599 214.943,262.770 228.654,237.000 231.304 C 231.529 231.866,166.787 231.759,161.750 231.179 C 137.221 228.355,122.778 214.975,119.254 191.811 C 117.660 181.338,117.556 120.009,119.112 108.928 C 122.390 85.588,137.277 71.398,161.125 68.883 C 169.189 68.032,223.755 67.732,234.375 68.480 M176.375 82.924 C 170.487 83.042,162.987 83.493,160.318 83.889 C 143.884 86.329,135.158 95.971,133.518 113.500 C 132.482 124.576,132.482 175.424,133.518 186.500 C 135.188 204.349,144.391 214.131,161.500 216.240 C 172.132 217.551,229.645 217.448,239.334 216.101 C 254.930 213.933,263.989 204.833,266.113 189.200 C 267.372 179.934,267.635 127.033,266.487 113.961 C 264.825 95.050,255.167 85.243,236.500 83.511 C 229.802 82.890,195.001 82.550,176.375 82.924 M247.755 97.407 C 254.095 100.374,255.451 108.794,250.346 113.500 C 243.741 119.588,233.150 114.484,233.826 105.539 C 234.339 98.758,241.593 94.523,247.755 97.407 M202.777 107.995 C 233.109 110.215,251.186 142.264,237.339 169.270 C 225.905 191.572,196.903 198.945,176.326 184.781 C 151.643 167.791,151.798 131.629,176.625 114.966 C 183.212 110.545,189.662 108.500,199.250 107.792 C 199.456 107.777,201.043 107.868,202.777 107.995 M195.084 123.104 C 175.112 126.904,166.039 150.254,178.241 166.449 C 191.385 183.892,219.122 179.259,225.862 158.494 C 232.224 138.898,215.165 119.284,195.084 123.104 " stroke="none" fill="#040404" fill-rule="evenodd"></path><path id="path2" d="M190.688 68.187 C 195.809 68.225,204.191 68.225,209.313 68.187 C 214.434 68.150,210.244 68.119,200.000 68.119 C 189.756 68.119,185.566 68.150,190.688 68.187 M170.563 68.422 C 170.803 68.485,171.197 68.485,171.438 68.422 C 171.678 68.359,171.481 68.308,171.000 68.308 C 170.519 68.308,170.322 68.359,170.563 68.422 M228.313 68.422 C 228.553 68.485,228.947 68.485,229.188 68.422 C 229.428 68.359,229.231 68.308,228.750 68.308 C 228.269 68.308,228.072 68.359,228.313 68.422 M173.438 82.926 C 173.747 82.986,174.253 82.986,174.563 82.926 C 174.872 82.867,174.619 82.818,174.000 82.818 C 173.381 82.818,173.128 82.867,173.438 82.926 M225.316 82.929 C 225.696 82.987,226.258 82.985,226.566 82.926 C 226.873 82.867,226.563 82.820,225.875 82.822 C 225.188 82.823,224.936 82.872,225.316 82.929 M231.813 83.172 C 232.053 83.235,232.447 83.235,232.688 83.172 C 232.928 83.109,232.731 83.058,232.250 83.058 C 231.769 83.058,231.572 83.109,231.813 83.172 M233.818 106.250 C 233.818 106.869,233.867 107.122,233.926 106.813 C 233.986 106.503,233.986 105.997,233.926 105.688 C 233.867 105.378,233.818 105.631,233.818 106.250 M253.322 106.375 C 253.323 107.063,253.372 107.314,253.429 106.934 C 253.487 106.554,253.485 105.992,253.426 105.684 C 253.367 105.377,253.320 105.688,253.322 106.375 M250.359 113.313 L 249.625 114.125 250.438 113.391 C 250.884 112.987,251.250 112.621,251.250 112.578 C 251.250 112.385,251.044 112.555,250.359 113.313 M133.058 117.750 C 133.058 118.231,133.109 118.428,133.172 118.188 C 133.235 117.947,133.235 117.553,133.172 117.313 C 133.109 117.072,133.058 117.269,133.058 117.750 M266.808 119.000 C 266.808 119.481,266.859 119.678,266.922 119.438 C 266.985 119.197,266.985 118.803,266.922 118.563 C 266.859 118.322,266.808 118.519,266.808 119.000 M118.308 121.000 C 118.308 121.481,118.359 121.678,118.422 121.438 C 118.485 121.197,118.485 120.803,118.422 120.563 C 118.359 120.322,118.308 120.519,118.308 121.000 M281.572 122.875 C 281.573 123.563,281.622 123.814,281.679 123.434 C 281.737 123.054,281.735 122.492,281.676 122.184 C 281.617 121.877,281.570 122.188,281.572 122.875 M132.825 124.500 C 132.825 125.256,132.872 125.566,132.929 125.188 C 132.986 124.809,132.986 124.191,132.929 123.813 C 132.872 123.434,132.825 123.744,132.825 124.500 M267.077 126.125 C 267.079 126.950,267.126 127.257,267.181 126.808 C 267.237 126.359,267.236 125.684,267.179 125.308 C 267.122 124.932,267.076 125.300,267.077 126.125 M219.250 130.625 C 219.716 131.106,220.154 131.500,220.223 131.500 C 220.292 131.500,219.966 131.106,219.500 130.625 C 219.034 130.144,218.596 129.750,218.527 129.750 C 218.458 129.750,218.784 130.144,219.250 130.625 M118.119 150.000 C 118.119 160.244,118.150 164.434,118.187 159.313 C 118.225 154.191,118.225 145.809,118.187 140.688 C 118.150 135.566,118.119 139.756,118.119 150.000 M227.330 150.000 C 227.330 150.894,227.375 151.259,227.431 150.813 C 227.486 150.366,227.486 149.634,227.431 149.188 C 227.375 148.741,227.330 149.106,227.330 150.000 M180.500 169.375 C 180.966 169.856,181.404 170.250,181.473 170.250 C 181.542 170.250,181.216 169.856,180.750 169.375 C 180.284 168.894,179.846 168.500,179.777 168.500 C 179.708 168.500,180.034 168.894,180.500 169.375 M267.077 173.875 C 267.079 174.700,267.126 175.007,267.181 174.558 C 267.237 174.109,267.236 173.434,267.179 173.058 C 267.122 172.682,267.076 173.050,267.077 173.875 M132.825 175.500 C 132.825 176.256,132.872 176.566,132.929 176.188 C 132.986 175.809,132.986 175.191,132.929 174.813 C 132.872 174.434,132.825 174.744,132.825 175.500 M281.575 177.000 C 281.575 177.756,281.622 178.066,281.679 177.688 C 281.736 177.309,281.736 176.691,281.679 176.313 C 281.622 175.934,281.575 176.244,281.575 177.000 M199.188 177.431 C 199.634 177.486,200.366 177.486,200.813 177.431 C 201.259 177.375,200.894 177.330,200.000 177.330 C 199.106 177.330,198.741 177.375,199.188 177.431 M266.808 181.000 C 266.808 181.481,266.859 181.678,266.922 181.438 C 266.985 181.197,266.985 180.803,266.922 180.563 C 266.859 180.322,266.808 180.519,266.808 181.000 M133.058 182.250 C 133.058 182.731,133.109 182.928,133.172 182.688 C 133.235 182.447,133.235 182.053,133.172 181.813 C 133.109 181.572,133.058 181.769,133.058 182.250 M168.313 216.922 C 168.553 216.985,168.947 216.985,169.188 216.922 C 169.428 216.859,169.231 216.808,168.750 216.808 C 168.269 216.808,168.072 216.859,168.313 216.922 M230.813 216.922 C 231.053 216.985,231.447 216.985,231.688 216.922 C 231.928 216.859,231.731 216.808,231.250 216.808 C 230.769 216.808,230.572 216.859,230.813 216.922 M175.188 217.181 C 175.634 217.236,176.366 217.236,176.813 217.181 C 177.259 217.125,176.894 217.080,176.000 217.080 C 175.106 217.080,174.741 217.125,175.188 217.181 M223.192 217.181 C 223.641 217.237,224.316 217.236,224.692 217.179 C 225.068 217.122,224.700 217.076,223.875 217.077 C 223.050 217.079,222.743 217.126,223.192 217.181 M268.000 218.125 C 267.393 218.744,266.952 219.250,267.021 219.250 C 267.090 219.250,267.643 218.744,268.250 218.125 C 268.857 217.506,269.298 217.000,269.229 217.000 C 269.160 217.000,268.607 217.506,268.000 218.125 M233.063 231.422 C 233.303 231.485,233.697 231.485,233.938 231.422 C 234.178 231.359,233.981 231.308,233.500 231.308 C 233.019 231.308,232.822 231.359,233.063 231.422 M172.316 231.679 C 172.696 231.737,173.258 231.735,173.566 231.676 C 173.873 231.617,173.563 231.570,172.875 231.572 C 172.188 231.573,171.936 231.622,172.316 231.679 M226.566 231.679 C 226.946 231.737,227.508 231.735,227.816 231.676 C 228.123 231.617,227.813 231.570,227.125 231.572 C 226.438 231.573,226.186 231.622,226.566 231.679 " stroke="none" fill="#848484" fill-rule="evenodd"></path><path id="path3" d="M176.313 68.182 C 176.828 68.236,177.672 68.236,178.188 68.182 C 178.703 68.128,178.281 68.084,177.250 68.084 C 176.219 68.084,175.797 68.128,176.313 68.182 M221.813 68.182 C 222.328 68.236,223.172 68.236,223.688 68.182 C 224.203 68.128,223.781 68.084,222.750 68.084 C 221.719 68.084,221.297 68.128,221.813 68.182 M230.313 68.422 C 230.553 68.485,230.947 68.485,231.188 68.422 C 231.428 68.359,231.231 68.308,230.750 68.308 C 230.269 68.308,230.072 68.359,230.313 68.422 M176.813 82.932 C 177.328 82.986,178.172 82.986,178.688 82.932 C 179.203 82.878,178.781 82.834,177.750 82.834 C 176.719 82.834,176.297 82.878,176.813 82.932 M221.194 82.933 C 221.782 82.986,222.682 82.985,223.194 82.932 C 223.706 82.878,223.225 82.835,222.125 82.836 C 221.025 82.837,220.606 82.881,221.194 82.933 M169.063 83.172 C 169.303 83.235,169.697 83.235,169.938 83.172 C 170.178 83.109,169.981 83.058,169.500 83.058 C 169.019 83.058,168.822 83.109,169.063 83.172 M230.063 83.172 C 230.303 83.235,230.697 83.235,230.938 83.172 C 231.178 83.109,230.981 83.058,230.500 83.058 C 230.019 83.058,229.822 83.109,230.063 83.172 M199.188 107.926 C 199.497 107.986,200.003 107.986,200.313 107.926 C 200.622 107.867,200.369 107.818,199.750 107.818 C 199.131 107.818,198.878 107.867,199.188 107.926 M229.625 120.250 C 230.302 120.938,230.912 121.500,230.981 121.500 C 231.050 121.500,230.552 120.938,229.875 120.250 C 229.198 119.563,228.588 119.000,228.519 119.000 C 228.450 119.000,228.948 119.563,229.625 120.250 M281.558 120.500 C 281.558 120.981,281.609 121.178,281.672 120.938 C 281.735 120.697,281.735 120.303,281.672 120.063 C 281.609 119.822,281.558 120.019,281.558 120.500 M266.808 120.750 C 266.808 121.231,266.859 121.428,266.922 121.188 C 266.985 120.947,266.985 120.553,266.922 120.313 C 266.859 120.072,266.808 120.269,266.808 120.750 M118.084 127.500 C 118.084 128.531,118.128 128.953,118.182 128.438 C 118.236 127.922,118.236 127.078,118.182 126.563 C 118.128 126.047,118.084 126.469,118.084 127.500 M132.827 127.625 C 132.829 128.450,132.876 128.757,132.931 128.308 C 132.987 127.859,132.986 127.184,132.929 126.808 C 132.872 126.432,132.826 126.800,132.827 127.625 M267.095 131.125 C 267.096 132.775,267.136 133.417,267.185 132.553 C 267.234 131.688,267.234 130.338,267.184 129.553 C 267.135 128.767,267.095 129.475,267.095 131.125 M157.825 150.000 C 157.825 150.756,157.872 151.066,157.929 150.688 C 157.986 150.309,157.986 149.691,157.929 149.313 C 157.872 148.934,157.825 149.244,157.825 150.000 M267.095 168.875 C 267.096 170.525,267.136 171.167,267.185 170.303 C 267.234 169.438,267.234 168.088,267.184 167.303 C 267.135 166.517,267.095 167.225,267.095 168.875 M118.084 172.500 C 118.084 173.531,118.128 173.953,118.182 173.438 C 118.236 172.922,118.236 172.078,118.182 171.563 C 118.128 171.047,118.084 171.469,118.084 172.500 M132.825 172.250 C 132.825 173.006,132.872 173.316,132.929 172.938 C 132.986 172.559,132.986 171.941,132.929 171.563 C 132.872 171.184,132.825 171.494,132.825 172.250 M170.125 179.750 C 170.662 180.300,171.158 180.750,171.226 180.750 C 171.295 180.750,170.912 180.300,170.375 179.750 C 169.838 179.200,169.342 178.750,169.274 178.750 C 169.205 178.750,169.588 179.200,170.125 179.750 M281.558 179.500 C 281.558 179.981,281.609 180.178,281.672 179.938 C 281.735 179.697,281.735 179.303,281.672 179.063 C 281.609 178.822,281.558 179.019,281.558 179.500 M118.308 180.750 C 118.308 181.231,118.359 181.428,118.422 181.188 C 118.485 180.947,118.485 180.553,118.422 180.313 C 118.359 180.072,118.308 180.269,118.308 180.750 M257.616 207.813 L 256.375 209.125 257.688 207.884 C 258.409 207.202,259.000 206.611,259.000 206.572 C 259.000 206.385,258.768 206.593,257.616 207.813 M170.313 216.922 C 170.553 216.985,170.947 216.985,171.188 216.922 C 171.428 216.859,171.231 216.808,170.750 216.808 C 170.269 216.808,170.072 216.859,170.313 216.922 M228.813 216.922 C 229.053 216.985,229.447 216.985,229.688 216.922 C 229.928 216.859,229.731 216.808,229.250 216.808 C 228.769 216.808,228.572 216.859,228.813 216.922 M180.074 217.186 C 181.146 217.233,182.833 217.233,183.824 217.185 C 184.815 217.138,183.938 217.100,181.875 217.100 C 179.813 217.100,179.002 217.139,180.074 217.186 M216.188 217.186 C 217.184 217.233,218.816 217.233,219.813 217.186 C 220.809 217.138,219.994 217.099,218.000 217.099 C 216.006 217.099,215.191 217.138,216.188 217.186 M169.940 231.677 C 170.251 231.737,170.701 231.734,170.940 231.672 C 171.179 231.609,170.925 231.560,170.375 231.563 C 169.825 231.566,169.629 231.617,169.940 231.677 M229.063 231.672 C 229.303 231.735,229.697 231.735,229.938 231.672 C 230.178 231.609,229.981 231.558,229.500 231.558 C 229.019 231.558,228.822 231.609,229.063 231.672 " stroke="none" fill="#565656" fill-rule="evenodd"></path><path id="path4" d="M179.563 68.179 C 179.941 68.236,180.559 68.236,180.938 68.179 C 181.316 68.122,181.006 68.075,180.250 68.075 C 179.494 68.075,179.184 68.122,179.563 68.179 M219.063 68.179 C 219.441 68.236,220.059 68.236,220.438 68.179 C 220.816 68.122,220.506 68.075,219.750 68.075 C 218.994 68.075,218.684 68.122,219.063 68.179 M118.072 130.375 C 118.073 131.063,118.122 131.314,118.179 130.934 C 118.237 130.554,118.235 129.992,118.176 129.684 C 118.117 129.377,118.070 129.688,118.072 130.375 M118.072 169.625 C 118.073 170.313,118.122 170.564,118.179 170.184 C 118.237 169.804,118.235 169.242,118.176 168.934 C 118.117 168.627,118.070 168.938,118.072 169.625 " stroke="none" fill="#7c7c7c" fill-rule="evenodd"></path></g></svg>